<?xml version="1.0" encoding="UTF-8" standalone="no"?>
<!-- Created with Inkscape (http://www.inkscape.org/) -->

<svg
   width="1024mm"
   height="1024mm"
   viewBox="0 0 1024 1024"
   version="1.1"
   id="svg5834"
   xml:space="preserve"
   inkscape:export-filename="bitmap.png"
   inkscape:export-xdpi="25.4"
   inkscape:export-ydpi="25.4"
   xmlns:inkscape="http://www.inkscape.org/namespaces/inkscape"
   xmlns:sodipodi="http://sodipodi.sourceforge.net/DTD/sodipodi-0.dtd"
   xmlns="http://www.w3.org/2000/svg"
   xmlns:svg="http://www.w3.org/2000/svg"><sodipodi:namedview
     id="namedview5836"
     pagecolor="#ffffff"
     bordercolor="#000000"
     borderopacity="0.25"
     inkscape:showpageshadow="2"
     inkscape:pageopacity="0.0"
     inkscape:pagecheckerboard="true"
     inkscape:deskcolor="#d1d1d1"
     inkscape:document-units="mm"
     showgrid="false" /><defs
     id="defs5831" /><g
     inkscape:label="Layer 1"
     inkscape:groupmode="layer"
     id="layer1"><path
       style="fill:#000000;stroke-width:0.904706"
       d="m 1015.0953,610.87182 c -4.9299,-0.71025 -7.1798,-5.49279 -3.5083,-7.45768 2.0823,-1.11444 6.6726,-0.53958 8.6241,1.08 0.6694,0.55556 1.2171,2.13416 1.2171,3.50799 0,2.67768 -1.8493,3.51565 -6.3329,2.86969 z m -365.81568,-5.98505 c -4.73395,-1.27217 -8.48834,-4.39575 -8.76709,-7.29407 -0.32917,-3.42263 0.0388,-4.54343 1.86648,-5.68482 1.69164,-1.05645 1.78818,-0.96908 1.25898,1.13943 -1.33142,5.3048 2.90543,10.061 5.63594,6.3268 1.07478,-1.46985 1.22384,-1.4793 1.74896,-0.11087 0.31573,0.82277 1.34472,1.49593 2.28667,1.49593 1.43915,0 1.71356,-0.68619 1.71857,-4.29735 l 0.006,-4.29736 1.79749,2.71412 c 2.45341,3.70455 2.36398,8.10368 -0.20131,9.90047 -1.10589,0.77459 -2.22546,1.38088 -2.48794,1.3473 -0.26248,-0.0336 -2.4507,-0.5914 -4.86272,-1.23958 z m -1.4951,-9.48184 c 0,-2.36369 0.92619,-4.59753 1.90621,-4.59753 0.44435,0 0.80791,1.42491 0.80791,3.16647 0,2.2115 -0.40927,3.16648 -1.35706,3.16648 -0.74638,0 -1.35706,-0.78095 -1.35706,-1.73542 z M 788.2031,593.5258 c -5.97813,-1.3967 -8.27853,-5.2615 -6.15577,-10.342 1.29296,-3.09448 1.54388,-3.23287 5.86158,-3.23287 5.934,0 8.50159,1.06885 11.00162,4.57981 2.2762,3.19663 1.91473,4.56898 -1.91945,7.28758 -2.95285,2.0937 -5.2361,2.53733 -8.78798,1.70748 z m 138.73213,-18.35174 c 0.28389,-0.73982 -0.43526,-1.23084 -1.99117,-1.35962 -2.97784,-0.24645 -3.13191,-0.38292 -2.17682,-1.92835 0.49796,-0.80556 1.56877,-1.02374 3.11735,-0.63509 1.74907,0.43899 2.35884,1.17228 2.35884,2.83657 0,1.23449 -0.39436,2.24453 -0.8763,2.24453 -0.48202,0 -0.67636,-0.52112 -0.4319,-1.15804 z M 821.89934,553.30321 c -3.37753,-3.37752 -3.04566,-7.99176 0.85535,-11.89277 3.94604,-3.94604 7.41423,-4.0845 11.30358,-0.45126 3.1558,2.94794 3.58264,5.92247 1.44337,10.05926 -1.6965,3.28081 -3.90218,4.50542 -8.11459,4.50542 -2.26247,0 -3.94991,-0.68284 -5.48771,-2.22065 z M 232.0286,551.51335 c -1.12188,-1.7122 -1.21991,-2.61647 -0.44138,-4.07118 1.86971,-3.49359 7.27012,-1.85856 7.27012,2.2011 0,4.2444 -4.4708,5.46875 -6.82874,1.87008 z m 655.80812,0.78634 c -0.94162,-2.45372 1.2712,-5.98206 3.54871,-5.65849 1.62522,0.23089 2.08245,0.96022 2.30764,3.6806 0.26887,3.24939 0.16266,3.39265 -2.51635,3.39265 -1.70248,0 -3.0096,-0.55368 -3.34,-1.41476 z m -73.16498,-12.21591 c -0.78902,-1.52581 -1.30837,-3.86673 -1.15411,-5.20206 0.24071,-2.08366 0.67868,-2.41099 3.08915,-2.30879 3.18065,0.13485 7.59544,2.68447 7.59544,4.38649 0,0.62205 -0.84378,2.2037 -1.87507,3.51478 -2.60763,3.31506 -5.82405,3.15102 -7.65541,-0.39042 z m -236.2609,-3.36119 c -0.58761,-0.37369 -1.82356,-2.70838 -2.74657,-5.1882 -1.21169,-3.25544 -2.17216,-4.52489 -3.45516,-4.56675 -4.17473,-0.13621 -8.57257,-1.47818 -9.34036,-2.85014 -1.1801,-2.10872 0.56445,-6.5913 2.56524,-6.5913 0.88557,0 2.13923,-0.63752 2.7859,-1.41672 2.029,-2.44479 6.04063,-4.01152 10.27155,-4.01152 3.85397,0 4.2043,0.21557 6.37787,3.92449 1.82627,3.11628 2.2999,5.13792 2.2999,9.81676 0,3.24075 -0.44694,7.17438 -0.99321,8.7414 -0.83259,2.38838 -1.45438,2.84688 -3.845,2.83527 -1.56848,-0.007 -3.33256,-0.3196 -3.92016,-0.69329 z m -294.89573,-6.98286 c -0.80033,-2.08562 0.32392,-4.07118 2.30517,-4.07118 2.2429,0 2.84945,0.95687 2.19439,3.46182 -0.5911,2.26039 -3.70422,2.68198 -4.49956,0.60936 z m -17.43131,-1.70666 c -0.61238,-0.73788 -0.98388,-2.69134 -0.82553,-4.34101 0.25322,-2.638 0.60304,-2.99939 2.90342,-2.99939 3.39241,0 4.84816,2.22731 3.66448,5.60667 -1.00809,2.87805 -4.03437,3.79174 -5.74237,1.73373 z m 205.60751,-1.01444 c -0.63001,-1.64179 1.95984,-5.87361 3.59463,-5.87361 0.63981,0 1.93094,0.56132 2.86918,1.24738 1.62612,1.18905 1.63323,1.35827 0.15206,3.61883 -1.73517,2.64821 -5.75155,3.25978 -6.61587,1.0074 z m -85.36686,-2.72953 c 0,-2.55672 3.5099,-4.49243 6.45243,-3.55851 3.82007,1.21244 0.71927,5.75972 -3.96449,5.8139 -2.06477,0.0239 -2.48794,-0.35974 -2.48794,-2.25539 z m -29.12991,-0.85662 c -7.28872,-1.85068 -9.25575,-5.32948 -4.70095,-8.3139 2.04601,-1.3406 3.01542,-1.4066 7.33925,-0.49967 6.07593,1.27444 7.49278,2.35836 7.49278,5.73218 0,1.43184 -0.10447,2.60334 -0.23215,2.60334 -0.12768,0 -1.45245,0.34998 -2.94392,0.77772 -1.70859,0.49002 -4.28151,0.37916 -6.95501,-0.29967 z m 354.14559,-0.43132 c -3.26683,-1.50187 -3.845,-2.17273 -3.845,-4.4614 0,-5.45869 5.12629,-7.11255 11.681,-3.76859 3.87042,1.97454 4.90876,4.27879 3.34735,7.42836 -1.3886,2.801 -6.0998,3.1387 -11.18335,0.80163 z M 343.52244,510.14937 c -1.69595,-0.9491 -2.02688,-3.06491 -0.61579,-3.93701 1.56028,-0.9643 4.51543,0.49575 4.51543,2.23095 0,2.03591 -1.85785,2.84871 -3.89964,1.70606 z M 132.77152,500.1106 c -2.12876,-1.86294 -2.85969,-3.78294 -2.58309,-6.7853 0.16833,-1.82726 5.94501,-1.32603 8.57687,0.7442 2.69945,2.12338 3.05238,4.56472 0.9621,6.65501 -1.97463,1.97463 -4.22493,1.77603 -6.95588,-0.61391 z m 539.44007,0.22618 c -2.13416,-2.13416 -2.37789,-6.54431 -0.45011,-8.14422 1.4944,-1.24025 6.26307,-0.65124 8.28006,1.02271 2.93729,2.43774 -0.12439,8.93092 -4.21113,8.93092 -0.99517,0 -2.62364,-0.81424 -3.61882,-1.80941 z M 569.76675,483.49341 c -0.96407,-2.11589 -0.82638,-2.58535 1.29291,-4.40828 1.33067,-1.1446 4.29502,-2.32858 6.75277,-2.69711 4.90741,-0.73585 6.84376,-1.59495 10.55708,-4.6839 2.95902,-2.46148 6.20087,-2.7393 8.23449,-0.70567 3.66195,3.66194 -0.37698,8.17984 -8.91206,9.96895 -3.43429,0.71989 -7.54939,2.11555 -9.14465,3.10148 -4.15235,2.56629 -7.44746,2.35034 -8.78054,-0.57547 z m -75.24244,-3.20982 c -2.43422,-3.47535 -1.88384,-5.27859 1.61116,-5.27859 3.53737,0 5.35108,1.72908 4.92993,4.69991 -0.42368,2.98866 -4.59462,3.35766 -6.54109,0.57868 z m 64.44852,-1.17641 c -0.88835,-1.94972 -0.82369,-2.61102 0.37224,-3.80696 2.26144,-2.26144 4.47026,-0.85523 4.13339,2.63145 -0.36743,3.80299 -2.996,4.48878 -4.50563,1.17551 z M 3.0689759,478.39765 c -1.5518299,-4.6001 0.62502,-7.91618 5.1965936,-7.91618 3.2956415,0 5.1996305,2.03092 4.6414465,4.95088 -0.906733,4.74326 -8.4692851,7.02271 -9.8380401,2.9653 z M 293.41969,477.1438 c -0.66796,-1.74068 0.73515,-4.30486 2.53111,-4.62561 2.37096,-0.42343 3.79851,1.26135 3.17472,3.74677 -0.44148,1.75897 -1.17008,2.35887 -2.86497,2.35887 -1.26972,0 -2.52359,-0.65325 -2.84086,-1.48003 z m 226.36332,-1.46027 c -0.20964,-0.62198 -0.57224,-2.478 -0.80579,-4.12446 -0.39465,-2.78227 -0.2582,-2.97386 1.93302,-2.71412 3.08592,0.36579 4.66725,5.07607 2.29586,6.83858 -0.83687,0.62199 -1.86364,1.13088 -2.28174,1.13088 -0.4181,0 -0.93172,-0.50889 -1.14135,-1.13088 z m -13.40716,-9.39698 c -2.44103,-2.44102 1.66916,-8.13009 5.35712,-7.41499 2.42799,0.4708 2.51518,2.43799 0.13454,3.03549 -1.18198,0.29666 -2.75935,1.5452 -3.50526,2.77454 -0.74592,1.22933 -1.6398,1.95157 -1.9864,1.60496 z M 28.965516,435.82203 c 0,-3.05159 5.173155,-8.0196 7.998191,-7.68102 3.412687,0.409 3.31772,2.01963 -0.359024,6.08935 -3.871491,4.28528 -7.639167,5.07029 -7.639167,1.59167 z m 106.031564,-5.32858 c -1.85421,-1.8542 -1.24417,-5.10172 1.26748,-6.74741 4.45261,-2.91746 7.63129,1.68447 3.90399,5.652 -2.28431,2.43155 -3.56423,2.70266 -5.17147,1.09541 z m -34.34397,-4.04051 c -2.587314,-1.04235 -3.032863,-3.79121 -1.197576,-7.38867 2.435636,-4.77424 5.832826,-6.91128 9.372786,-5.89603 5.14376,1.4752 5.53896,5.74279 1.02824,11.10348 -2.276,2.70487 -5.81925,3.54462 -9.20345,2.18122 z"
       id="path5850"
       sodipodi:nodetypes="ssssssssssssscsssssssssssssssssssssssssssssssssssssssssssssssssssssscssssssssssssssssssssssssssssssssssssssssssssssssssssssssssssssssssssssssssssssssssssssssssssss" /></g></svg>
