<?xml version="1.0" encoding="UTF-8" standalone="no"?>
<!-- Created with Inkscape (http://www.inkscape.org/) -->

<svg
   width="1024mm"
   height="1024mm"
   viewBox="0 0 1024 1024"
   version="1.1"
   id="svg5797"
   xml:space="preserve"
   inkscape:export-filename="1024.png"
   inkscape:export-xdpi="25.4"
   inkscape:export-ydpi="25.4"
   xmlns:inkscape="http://www.inkscape.org/namespaces/inkscape"
   xmlns:sodipodi="http://sodipodi.sourceforge.net/DTD/sodipodi-0.dtd"
   xmlns="http://www.w3.org/2000/svg"
   xmlns:svg="http://www.w3.org/2000/svg"><sodipodi:namedview
     id="namedview5799"
     pagecolor="#ffffff"
     bordercolor="#000000"
     borderopacity="0.25"
     inkscape:showpageshadow="2"
     inkscape:pageopacity="0.0"
     inkscape:pagecheckerboard="true"
     inkscape:deskcolor="#d1d1d1"
     inkscape:document-units="mm"
     showgrid="false" /><defs
     id="defs5794" /><g
     inkscape:label="Layer 1"
     inkscape:groupmode="layer"
     id="layer1"><path
       style="fill:#000000;stroke-width:3.23267"
       d="m 709.83911,854.01599 c -5.13754,-5.13755 -4.94947,-12.28413 0.32327,-12.28413 6.20862,0 11.70509,6.60307 9.74606,11.70826 -2.10207,5.47788 -5.00151,5.64368 -10.06933,0.57587 z m -53.44672,-88.79056 c -3.71964,-3.7196 -2.35416,-7.54287 2.69388,-7.54287 2.66694,0 4.84899,2.18205 4.84899,4.849 0,5.04803 -3.82327,6.41351 -7.54287,2.69387 z m 88.35951,-4.31021 c 0,-1.77796 1.4547,-3.23266 3.23266,-3.23266 1.77797,0 3.23267,1.4547 3.23267,3.23266 0,1.77797 -1.4547,3.23267 -3.23267,3.23267 -1.77796,0 -3.23266,-1.4547 -3.23266,-3.23267 z m 38.19979,-21.82049 c -0.32569,-4.8894 -0.37405,-12.46548 -0.10732,-16.83575 0.26669,-4.37024 -1.88255,-10.56164 -4.77578,-13.75864 -6.52708,-7.21231 -3.79748,-10.41132 6.64691,-7.78995 8.84195,2.21919 24.73849,30.19319 19.2489,33.87339 -1.71176,1.14753 -4.05156,4.63218 -5.19955,7.74362 -1.14798,3.11144 -5.04227,5.65716 -8.65403,5.65716 -4.8651,0 -6.72023,-2.30366 -7.15897,-8.88983 z m 230.11141,-8.88983 c -2.2133,-2.66695 -8.6467,-4.84899 -14.29624,-4.84899 -12.6064,0 -19.46537,-5.69017 -14.32498,-11.88396 4.16839,-5.02259 17.65752,-5.71002 20.53962,-1.04671 1.0988,1.77797 4.8214,3.23267 8.2724,3.23267 4.8166,0 6.2746,2.25339 6.2746,9.698 0,11.02639 -0.8251,11.64516 -6.4654,4.84899 z m -45.48219,-90.78559 c -3.36898,-4.05942 -3.43154,-6.23568 -0.30193,-10.50616 2.171,-2.96242 4.81001,-7.96257 5.86457,-11.11151 1.49133,-4.45329 2.90688,-4.90402 6.37146,-2.02866 2.44978,2.03315 4.45416,5.70054 4.45416,8.14977 0,2.51014 3.29118,4.45319 7.54287,4.45319 11.66706,0 12.77326,3.78995 2.98935,10.24154 -10.99721,7.25161 -21.31258,7.55888 -26.92044,0.80183 z m -37.75892,-6.30412 c -4.00042,-2.80821 -7.2735,-7.93276 -7.2735,-11.38787 0,-7.50314 4.15117,-8.11654 9.698,-1.43304 2.21337,2.66695 6.86227,4.849 10.33086,4.849 4.25027,0 5.95363,1.83243 5.22421,5.62005 -1.45725,7.5669 -9.1222,8.56954 -17.97957,2.35186 z m -225.2475,-22.74982 c -6.71318,-6.71317 -6.44952,-14.11223 0.57726,-16.19911 3.11144,-0.92405 9.77548,-3.78781 14.80897,-6.36385 11.03098,-5.64553 15.83886,-5.8777 20.71614,-1.00042 2.75601,2.75601 1.0876,6.81065 -6.62696,16.10504 -11.09451,13.36646 -21.04856,15.88519 -29.47541,7.45834 z m -34.64887,-39.36924 c -16.64121,-19.98892 -26.73227,-42.83281 -18.92102,-42.83281 1.77797,0 3.23267,1.35351 3.23267,3.00783 0,1.65432 3.27307,3.47269 7.27349,4.04083 4.98144,0.70747 7.2735,3.23535 7.2735,8.0218 0,3.8438 3.45711,10.67962 7.68246,15.19065 4.45746,4.7588 6.87488,10.30654 5.75864,13.21539 -2.51401,6.55139 -6.48262,6.34372 -12.29974,-0.64369 z m 256.50207,-33.78135 c -5.22382,-5.22383 -4.88417,-10.65845 0.9698,-15.51679 3.94369,-3.27298 4.849,-3.11901 4.849,0.82468 0,2.66695 2.18205,6.65994 4.849,8.87331 2.66695,2.21338 4.849,5.30089 4.849,6.86114 0,4.18734 -11.02792,3.44654 -15.5168,-1.04234 z M 587.96763,524.93065 c -1.09885,-1.77796 -0.45736,-3.23266 1.42554,-3.23266 1.8829,0 3.42345,1.4547 3.42345,3.23266 0,1.77797 -0.64149,3.23267 -1.42554,3.23267 -0.78405,0 -2.32461,-1.4547 -3.42345,-3.23267 z M 923.6047,501.16594 c -5.02582,-4.18078 -12.41094,-9.3234 -16.41137,-11.42809 -5.0469,-2.65521 -7.27349,-6.76063 -7.27349,-13.4109 0,-7.93649 1.32138,-9.58428 7.68585,-9.58428 4.2272,0 9.62255,2.3336 11.98963,5.18578 2.36709,2.85215 7.63666,6.45289 11.71014,8.00162 6.02679,2.29141 7.40636,5.23938 7.40636,15.82658 0,15.02152 -2.48314,15.91063 -15.10712,5.40929 z M 615.55901,483.11852 c -1.84052,-3.43904 -3.34639,-8.9669 -3.34639,-12.28413 0,-9.02525 -6.46947,-13.78971 -18.72447,-13.78971 -6.07121,0 -14.63493,-2.8859 -19.18542,-6.46533 -4.52062,-3.55593 -10.64161,-6.46533 -13.60218,-6.46533 -5.63299,0 -13.14124,-5.91035 -13.14124,-10.34453 0,-3.76101 21.96308,-3.16982 29.36282,0.79038 4.72877,2.53079 8.09462,2.1259 13.43741,-1.61633 10.40505,-7.28795 18.34192,-6.1462 21.87512,3.14678 1.70207,4.47682 6.55911,9.4568 10.79342,11.0667 9.37502,3.56437 11.81319,9.32928 11.81319,27.93172 0,13.02528 -0.70142,14.28259 -7.96793,14.28259 -4.56915,0 -9.39536,-2.66717 -11.31433,-6.25281 z M 438.28284,462.54794 c -9.53701,-9.83969 -13.78994,-21.66659 -7.79128,-21.66659 3.00988,0 23.32045,25.85075 23.32045,29.68162 0,5.23298 -5.38015,2.45612 -15.52917,-8.01503 z m 51.08849,4.19473 c 0,-1.77796 1.4547,-3.23266 3.23267,-3.23266 1.77796,0 3.23266,1.4547 3.23266,3.23266 0,1.77797 -1.4547,3.23267 -3.23266,3.23267 -1.77797,0 -3.23267,-1.4547 -3.23267,-3.23267 z m 337.20072,-11.5376 c -8.98015,-13.89364 -3.55247,-18.34208 8.12802,-6.66159 7.4126,7.4126 7.87096,9.02547 3.70467,13.03588 -4.13058,3.97602 -5.68345,3.13947 -11.83269,-6.37429 z m -10.05498,-34.36624 c -7.23542,-7.23542 -3.92268,-11.54353 10.5447,-13.71304 13.69298,-2.05338 27.60075,1.64391 27.60075,7.33751 0,2.15826 -25.04918,10.25472 -31.72651,10.25472 -1.39687,0 -4.28538,-1.74563 -6.41894,-3.87919 z m -64.28036,-31.70269 c -7.89177,-3.17968 -15.25178,-14.65205 -12.38043,-19.29801 2.94286,-4.76165 12.94592,0.58502 22.53879,12.04708 7.61552,9.0994 7.99691,10.47872 2.84834,10.30124 -3.26949,-0.11282 -9.12249,-1.48534 -13.0067,-3.05031 z M 4.4715246,384.30971 c 0,-2.66695 2.0039293,-4.849 4.4531744,-4.849 2.449248,0 6.264117,2.18205 8.477487,4.849 3.403172,4.10057 2.71584,4.849 -4.453174,4.849 -5.3804355,0 -8.4774874,-1.77147 -8.4774874,-4.849 z M 469.02694,366.00332 c -3.69665,-6.49368 -4.67489,-11.30638 -2.6996,-13.28167 1.97529,-1.97529 4.95458,0.49276 8.2219,6.8111 9.35837,18.09704 4.40221,23.90423 -5.5223,6.47057 z m 314.51694,-1.2804 c 0,-2.77188 1.4547,-4.14072 3.23267,-3.04187 1.77796,1.09885 3.23266,3.36676 3.23266,5.03979 0,1.67303 -1.4547,3.04187 -3.23266,3.04187 -1.77797,0 -3.23267,-2.26791 -3.23267,-5.03979 z m 34.27641,-9.80399 c -2.18364,-5.6905 5.6965,-20.71554 10.86466,-20.71554 4.66115,0 7.21773,6.05867 4.43331,10.50617 -1.3914,2.22245 -2.56829,6.19908 -2.61529,8.83694 -0.12155,6.82312 -10.17365,7.91088 -12.68268,1.37243 z m 85.33221,-7.78487 c 0,-1.77797 1.4547,-3.23267 3.23267,-3.23267 1.77796,0 3.23266,1.4547 3.23266,3.23267 0,1.77796 -1.4547,3.23266 -3.23266,3.23266 -1.77797,0 -3.23267,-1.4547 -3.23267,-3.23266 z M 498.49718,275.6618 c -2.9598,-1.82924 -3.2036,-3.62903 -0.81512,-6.01751 3.76641,-3.76641 24.83761,-0.80633 22.39491,3.14606 -2.36961,3.8341 -16.89495,5.76685 -21.57979,2.87145 z m 34.59757,-13.84396 c -11.19185,-9.46754 -12.28688,-11.54511 -8.49399,-16.11522 6.14539,-7.40478 52.82026,-7.77595 49.9889,-0.39752 -1.02343,2.66694 -5.38753,4.84899 -9.698,4.84899 -8.93586,0 -13.32155,7.69433 -8.02405,14.07742 1.96145,2.36344 2.60908,5.25428 1.43921,6.42418 -4.52657,4.52654 -12.87173,1.60124 -25.21207,-8.83785 z m 258.02999,5.97649 c -1.05285,-2.74363 -1.04234,-5.86031 0.0226,-6.92599 2.30237,-2.3024 11.79179,5.00275 11.79179,9.07755 0,4.87839 -9.8025,3.09334 -11.81513,-2.15156 z m 20.43559,-3.63203 c -3.25527,-3.25526 -2.58261,-10.77554 0.96382,-10.77554 1.71541,0 4.67598,2.9094 6.57905,6.46533 2.67665,5.00135 2.45841,6.46533 -0.96382,6.46533 -2.43316,0 -5.39376,-0.9698 -6.57905,-2.15512 z M 596.77525,253.3479 c -5.09336,-8.15572 -4.98445,-9.65914 0.69958,-9.65914 6.33754,0 9.19525,5.39047 5.9407,11.20601 -2.26005,4.0385 -3.30407,3.79527 -6.64028,-1.54687 z m -472.10037,-8.38754 c -12.97242,-13.57157 -12.50548,-21.90389 1.30324,-23.25566 8.42931,-0.82517 11.28638,0.99029 18.94063,12.03541 16.0532,23.16476 -0.21044,32.17895 -20.24387,11.22025 z m 274.82835,-8.38346 c -11.83317,-11.83317 3.05552,-21.09621 21.83255,-13.58314 16.36586,6.54831 16.75352,12.77659 0.95775,15.38745 -16.67422,2.75607 -18.36365,2.62234 -22.7903,-1.80431 z M 837.42165,180.113 c -3.95614,-3.95614 -2.21635,-14.00821 2.4245,-14.00821 5.1765,0 8.13785,6.07156 5.91264,12.1225 -1.63637,4.44983 -5.01002,5.21287 -8.33714,1.88571 z"
       id="path5813"
       sodipodi:nodetypes="ssssssssssssssssssssssssssssssssssssssssssssssssssssssssssssssssssssssssssssssssssssssssssssssssssssssssssssssssssssssssssssssssssssssssssssssssssssccsccsssssssssssssssssssss" /></g></svg>
