<?xml version="1.0" encoding="UTF-8" standalone="no"?>
<!-- Created with Inkscape (http://www.inkscape.org/) -->

<svg
   width="1024mm"
   height="1024mm"
   viewBox="0 0 1024 1024"
   version="1.1"
   id="svg4449"
   xml:space="preserve"
   inkscape:export-filename="bitmap.png"
   inkscape:export-xdpi="25.4"
   inkscape:export-ydpi="25.4"
   xmlns:inkscape="http://www.inkscape.org/namespaces/inkscape"
   xmlns:sodipodi="http://sodipodi.sourceforge.net/DTD/sodipodi-0.dtd"
   xmlns:xlink="http://www.w3.org/1999/xlink"
   xmlns="http://www.w3.org/2000/svg"
   xmlns:svg="http://www.w3.org/2000/svg"><sodipodi:namedview
     id="namedview4451"
     pagecolor="#ffffff"
     bordercolor="#000000"
     borderopacity="0.25"
     inkscape:showpageshadow="2"
     inkscape:pageopacity="0.0"
     inkscape:pagecheckerboard="true"
     inkscape:deskcolor="#d1d1d1"
     inkscape:document-units="mm"
     showgrid="false" /><defs
     id="defs4446"><linearGradient
       id="linearGradient5024"
       inkscape:swatch="solid"><stop
         style="stop-color:#000000;stop-opacity:1;"
         offset="0"
         id="stop5022" /></linearGradient><linearGradient
       inkscape:collect="always"
       xlink:href="#linearGradient5024"
       id="linearGradient5026"
       x1="1771.4628"
       y1="1249.3501"
       x2="3350.5173"
       y2="1249.3501"
       gradientUnits="userSpaceOnUse" /><linearGradient
       inkscape:collect="always"
       xlink:href="#linearGradient5024"
       id="linearGradient5028"
       x1="510.87988"
       y1="1369.9723"
       x2="1178.714"
       y2="1369.9723"
       gradientUnits="userSpaceOnUse" /><linearGradient
       inkscape:collect="always"
       xlink:href="#linearGradient5024"
       id="linearGradient5030"
       x1="737.7934"
       y1="2979.3374"
       x2="1698.9557"
       y2="2979.3374"
       gradientUnits="userSpaceOnUse" /><linearGradient
       inkscape:collect="always"
       xlink:href="#linearGradient5024"
       id="linearGradient5032"
       x1="1817.9647"
       y1="2682.1692"
       x2="1946.9639"
       y2="2682.1692"
       gradientUnits="userSpaceOnUse" /><linearGradient
       inkscape:collect="always"
       xlink:href="#linearGradient5024"
       id="linearGradient5034"
       x1="752.25336"
       y1="2024.0525"
       x2="1077.4628"
       y2="2024.0525"
       gradientUnits="userSpaceOnUse" /><linearGradient
       inkscape:collect="always"
       xlink:href="#linearGradient5024"
       id="linearGradient5036"
       x1="1235.1387"
       y1="254.69785"
       x2="1598.6713"
       y2="254.69785"
       gradientUnits="userSpaceOnUse" /><linearGradient
       inkscape:collect="always"
       xlink:href="#linearGradient5024"
       id="linearGradient5038"
       x1="1465.7977"
       y1="835.73694"
       x2="1488.5781"
       y2="835.73694"
       gradientUnits="userSpaceOnUse" /><linearGradient
       inkscape:collect="always"
       xlink:href="#linearGradient5024"
       id="linearGradient5042"
       x1="1350.184"
       y1="876.59991"
       x2="1424.4249"
       y2="876.59991"
       gradientUnits="userSpaceOnUse" /><linearGradient
       inkscape:collect="always"
       xlink:href="#linearGradient5024"
       id="linearGradient5044"
       x1="1363.7506"
       y1="808.33844"
       x2="1398.5593"
       y2="808.33844"
       gradientUnits="userSpaceOnUse" /><linearGradient
       inkscape:collect="always"
       xlink:href="#linearGradient5024"
       id="linearGradient5046"
       x1="1157.8892"
       y1="780.56763"
       x2="1193.4445"
       y2="780.56763"
       gradientUnits="userSpaceOnUse" /><linearGradient
       inkscape:collect="always"
       xlink:href="#linearGradient5024"
       id="linearGradient5048"
       x1="335.80844"
       y1="202.73964"
       x2="351.06104"
       y2="202.73964"
       gradientUnits="userSpaceOnUse" /><linearGradient
       inkscape:collect="always"
       xlink:href="#linearGradient5024"
       id="linearGradient5050"
       x1="1143.2291"
       y1="630.45947"
       x2="1396.006"
       y2="630.45947"
       gradientUnits="userSpaceOnUse" /></defs><g
     inkscape:label="Layer 1"
     inkscape:groupmode="layer"
     id="layer1"><path
       style="fill:#000000;stroke-width:3.40203"
       d="m 321.25565,1016.3829 c -10.73879,-1.6495 -15.39573,-4.8262 -22.98192,-15.677 l -9.51409,-13.60807 6.82227,-17.89718 c 3.75223,-9.84344 6.82226,-21.08896 6.82226,-24.99007 0,-3.90108 3.2616,-11.67336 7.24796,-17.27171 4.03621,-5.66837 7.34976,-15.70001 7.47767,-22.63842 0.27455,-14.89461 -14.94036,-66.91057 -26.53211,-90.70629 -4.55743,-9.35559 -9.27472,-26.14105 -10.48289,-37.30101 -1.20816,-11.15999 -5.0792,-29.53097 -8.60231,-40.82439 -7.00849,-22.46604 -33.93684,-65.3821 -47.93297,-76.39145 -13.57965,-10.68177 -29.24394,-37.70388 -31.71337,-54.70816 -2.01948,-13.90571 -1.30839,-16.18361 7.75667,-24.84783 5.48897,-5.24624 17.46477,-11.581 26.61287,-14.07721 9.1481,-2.4962 19.09765,-5.55718 22.11012,-6.80216 6.20214,-2.56323 26.8421,12.95518 26.8421,20.18157 0,4.84998 -17.02071,11.9375 -28.66797,11.9375 -10.51062,0 -22.36252,9.44969 -22.36252,17.82998 0,22.56797 30.3527,57.39553 55.9797,64.23276 32.3122,8.62082 34.23241,11.18119 20.56604,27.42273 -10.28363,12.2214 -10.39369,14.74843 -1.61257,37.0263 4.59639,11.66111 6.19262,21.21705 4.79163,28.68499 -1.2626,6.73024 -0.32013,14.3958 2.36196,19.21138 7.07181,12.6971 12.96614,31.10587 10.98578,34.31014 -2.94943,4.77224 41.99319,54.86659 62.43097,69.58736 9.41472,6.7812 10.96006,6.98219 17.65053,2.29603 5.24307,-3.67239 7.13304,-8.21356 6.6327,-15.93692 -0.38484,-5.94063 1.26399,-14.44048 3.66402,-18.88857 2.40007,-4.44812 5.16392,-20.52272 6.14183,-35.72134 1.51673,-23.57241 3.46997,-30.45734 13.28963,-46.84422 12.60514,-21.03521 18.12433,-24.9436 26.53701,-18.79208 5.02494,3.6743 4.74393,5.1434 -2.98865,15.62431 -12.69921,17.21282 -16.85384,32.32401 -12.3999,45.10061 5.67595,16.2821 4.38869,23.74479 -6.60134,38.2696 -5.5613,7.35003 -10.11145,16.97921 -10.11145,21.39824 0,9.16212 10.62064,31.65568 22.32029,47.27244 12.78161,17.06092 13.75153,26.78951 3.67542,36.86562 -5.18235,5.18235 -12.52488,8.67627 -18.23332,8.67627 -5.81224,0 -18.2035,6.02762 -31.62343,15.38297 -42.48444,29.61688 -52.35711,35.64378 -57.60328,35.16478 -2.90813,-0.2653 -11.34803,-1.4137 -18.75534,-2.5515 z m 43.01748,-15.6937 c 41.58791,-29.67149 51.81299,-35.70458 60.51328,-35.70458 12.00489,0 23.91714,-9.01774 23.84845,-18.05357 -0.0306,-4.10394 -6.92031,-18.87373 -15.30915,-32.82176 -18.91343,-31.44716 -19.89444,-44.40887 -4.79873,-63.40436 7.90448,-9.94649 9.92825,-15.24567 8.29895,-21.73049 -7.41269,-29.503 -6.59437,-36.19841 6.84451,-56.00171 4.81769,-7.09929 7.98437,-13.6829 7.03701,-14.63023 -4.20281,-4.20281 -12.05705,3.37879 -22.29703,21.52306 -9.67027,17.13478 -10.78876,21.62284 -8.91285,35.76421 1.37905,10.39569 0.79445,17.00533 -1.63699,18.50804 -2.08013,1.2856 -3.04519,5.15537 -2.14454,8.59946 0.90066,3.44411 -0.44821,9.01225 -2.99746,12.37367 -2.54924,3.36144 -4.68368,11.85261 -4.74321,18.8693 -0.10717,12.65434 -9.25503,26.36575 -17.59015,26.36575 -5.87381,0 -50.55869,-37.57228 -50.55869,-42.51115 0,-2.37424 -5.88518,-10.23787 -13.0782,-17.47468 -9.70576,-9.76492 -13.6978,-17.10555 -15.48108,-28.46702 -1.32159,-8.42003 -4.57621,-18.6301 -7.23248,-22.68907 -2.83914,-4.33841 -4.64228,-14.85402 -4.37512,-25.51525 0.27795,-11.09358 -1.74293,-22.36285 -5.2046,-29.02297 -7.9153,-15.22866 -7.06551,-26.04212 2.98515,-37.98666 8.43268,-10.02171 8.47977,-10.36099 1.92466,-13.86917 -3.69573,-1.97787 -9.26785,-3.59615 -12.38254,-3.59615 -15.44874,0 -56.02083,-29.45667 -56.02083,-40.67293 0,-3.36734 -2.29637,-8.02822 -5.10305,-10.35756 -2.9067,-2.41235 -5.10305,-9.82977 -5.10305,-17.23381 0,-14.60177 8.86849,-23.479 23.72071,-23.74401 4.72923,-0.0844 12.9103,-1.99805 18.18019,-4.25255 l 9.58155,-4.09911 -10.30908,-9.87422 c -7.89506,-7.56204 -11.3732,-8.9911 -14.85341,-6.10278 -2.49937,2.07429 -11.34785,4.8594 -19.66327,6.18908 -9.71018,1.55273 -18.47351,5.7722 -24.49593,11.79461 -9.89168,9.89169 -11.43253,16.40018 -6.18047,26.10625 1.7581,3.24908 4.03988,9.94316 5.07066,14.87576 1.03078,4.93261 12.22238,20.42298 24.87026,34.42303 37.99107,42.05276 52.01949,71.73958 57.46519,121.60719 1.12383,10.29115 5.10761,24.06938 8.8528,30.61829 7.76133,13.57149 29.82178,86.01162 29.82178,97.92598 0,4.33953 -2.95041,13.55156 -6.55643,20.47116 -3.60606,6.91963 -10.0259,23.53015 -14.26632,36.91232 l -7.70986,24.3312 9.44343,12.38093 c 6.93181,9.0883 11.16026,11.8362 15.89865,10.3323 3.55039,-1.1268 9.16525,-0.4711 12.47746,1.4572 8.75646,5.0979 8.73904,5.1042 32.16983,-11.613 z M 329.8979,980.74273 c -9.15793,-14.81786 -8.9239,-19.64531 1.42355,-29.36624 4.67779,-4.39458 8.50508,-11.55055 8.50508,-15.90216 0,-8.91891 9.22954,-11.01343 12.37785,-2.80902 3.67937,9.58825 8.09089,4.21426 16.01575,-19.50998 1.42634,-4.26993 4.81694,-5.57056 12.26205,-4.70372 5.89378,0.68622 11.94011,-0.78941 14.1513,-3.45371 5.41185,-6.52091 9.83167,-5.78839 9.83167,1.62947 0,3.45477 2.47831,11.24933 5.50741,17.32125 7.44123,14.91631 2.5948,24.85368 -17.96599,36.83823 -8.77613,5.11546 -21.61329,14.27629 -28.52707,20.35742 -16.17908,14.2306 -24.60067,14.1299 -33.5816,-0.40154 z m 27.19629,-0.7727 c 4.53617,-4.85586 15.1367,-12.76947 23.55673,-17.58579 8.42003,-4.81633 17.98825,-11.03157 21.2627,-13.81168 6.42267,-5.45294 8.10596,-22.68053 2.55153,-26.11335 -1.87112,-1.15642 -3.40203,-5.26152 -3.40203,-9.12242 0,-5.70296 -0.91308,-6.26208 -4.86722,-2.98042 -2.67696,2.22167 -9.46504,4.17015 -15.08462,4.32994 -9.03651,0.25685 -10.72239,2.0008 -14.58669,15.08829 -4.88134,16.53214 -9.68905,18.48345 -17.5996,7.14325 l -5.33955,-7.65458 -0.17827,7.67706 c -0.0983,4.2224 -4.00572,11.00487 -8.68352,15.07217 -10.25148,8.91353 -10.42502,11.48247 -1.7383,25.72974 8.14868,13.36478 13.26364,13.83743 24.10901,2.22779 z M 479.42955,730.46801 c -5.68439,-10.62142 -4.07775,-20.10588 4.13286,-24.39693 4.21001,-2.20023 11.48186,-8.48504 16.15965,-13.96623 5.72552,-6.70884 10.3648,-9.24601 14.19559,-7.76333 8.6924,3.36437 9.51001,9.3794 3.68141,27.08395 -4.23189,12.85458 -7.66828,17.18442 -16.60056,20.91655 -14.79891,6.18336 -17.37663,5.95941 -21.56895,-1.87401 z m 32.79801,-20.16164 c 2.73982,-8.1052 4.03185,-17.21153 2.87114,-20.23624 -1.7464,-4.55104 -3.98776,-3.59214 -12.99603,5.55981 -5.98714,6.08259 -13.65512,12.96014 -17.03997,15.28342 -5.08209,3.48818 -5.53875,5.84303 -2.6212,13.51676 3.36866,8.86025 4.02798,9.0907 14.16879,4.95281 7.98719,-3.25911 11.87626,-8.00961 15.61727,-19.07656 z m 38.52499,-56.60775 c -5.76066,-6.9412 0.16262,-13.76129 16.43178,-18.92013 20.85562,-6.61307 50.60517,-27.54517 56.39036,-39.67685 4.52576,-9.49058 7.10123,-11.14469 17.35268,-11.14469 9.28159,0 15.36174,-3.06353 26.55228,-13.37863 7.98274,-7.35822 23.93711,-19.22281 35.45411,-26.36575 11.51701,-7.14291 39.39707,-25.70606 61.95564,-41.25145 l 41.01559,-28.26436 v -15.6632 c 0,-20.30387 12.87244,-43.07021 27.17088,-48.05469 18.23037,-6.35514 22.22081,-30.62204 9.09492,-55.30845 -8.17308,-15.37144 -14.05869,-42.3788 -17.71714,-81.29844 -3.08129,-32.7801 -7.24412,-45.69938 -22.1625,-68.78099 -7.41198,-11.4678 -15.09265,-27.09172 -17.06814,-34.71984 -4.51728,-17.44298 -20.01344,-49.59064 -23.90421,-49.59064 -1.61022,0 -6.70615,-7.45652 -11.32431,-16.57005 -8.32389,-16.426361 -14.83902,-20.703574 -31.69184,-20.805849 -6.13254,-0.03722 -7.65457,-1.969961 -7.65457,-9.720009 0,-12.599833 -26.70633,-35.713229 -47.89766,-41.453772 -20.30667,-5.500896 -81.32821,-1.418817 -101.79177,6.809434 -8.42003,3.385632 -24.05857,8.084788 -34.75231,10.442567 -16.18289,3.568041 -20.3909,3.500344 -25.09499,-0.403716 -3.10851,-2.579829 -11.05681,-5.036369 -17.66288,-5.45898 -17.65281,-1.129308 -21.75559,-3.547783 -20.53688,-12.105888 0.70994,-4.985087 4.05039,-8.252138 9.59421,-9.383324 4.67779,-0.954477 15.21903,-5.311331 23.42493,-9.681899 16.43447,-8.7531938 26.90777,-9.3712874 102.45027,-6.04621 53.09291,2.3369358 70.45052,4.517823 99.97104,12.56081 31.02215,8.452112 37.05875,12.911344 49.77432,36.768234 5.9107,11.089575 16.60696,24.872298 23.7695,30.628272 7.74659,6.225326 14.68463,15.66269 17.1245,23.2934 2.25592,7.05539 6.85564,17.42074 10.22158,23.03409 3.36597,5.61336 9.99347,20.52035 14.72784,33.12666 4.73437,12.6063 12.80382,30.08025 17.93211,38.831 7.4593,12.72831 10.49932,24.81437 15.19991,60.42925 4.15892,31.51096 9.49096,54.45912 18.24871,78.53912 11.9315,32.80655 29.00732,90.89299 29.00732,98.67368 0,2.0768 -10.32897,11.34312 -22.95327,20.59182 -12.62426,9.2487 -37.50163,30.19216 -55.28303,46.54107 -23.7717,21.85666 -34.74765,29.73652 -41.46387,29.76778 -14.64643,0.068 -25.22662,5.54419 -41.26944,21.3599 -9.15474,9.02512 -22.74286,17.76552 -34.78038,22.37201 -10.86565,4.15803 -26.2411,13.53812 -34.1677,20.84456 -8.39074,7.73435 -20.58148,14.91318 -29.17893,17.18282 -8.39155,2.2153 -20.04644,8.99225 -26.99543,15.69701 -6.84884,6.60811 -19.43394,13.96718 -28.60745,16.728 -20.51028,6.17268 -23.65444,6.1538 -28.90578,-0.17385 z m 34.94683,-5.02187 c 1.44515,-0.0446 9.09973,-6.04433 17.01017,-13.33264 8.14184,-7.50148 20.67762,-14.94499 28.89019,-17.15444 8.37594,-2.2534 21.54504,-10.1533 31.15844,-18.69138 9.67374,-8.59166 24.22686,-17.30468 34.73087,-20.79356 11.8093,-3.92241 24.12762,-11.7248 35.51684,-22.49629 13.37676,-12.65113 21.16905,-17.18829 33.46522,-19.48548 8.81559,-1.64692 20.13068,-6.61944 25.14459,-11.05004 5.01395,-4.43057 19.9336,-18.00655 33.15478,-30.16882 13.22119,-12.16226 32.7231,-28.23687 43.33754,-35.72134 14.78098,-10.42236 19.3162,-15.64013 19.37237,-22.28794 0.0915,-10.83054 -19.0044,-74.50523 -34.12651,-113.79337 -3.60098,-9.35559 -8.66286,-36.24588 -11.24861,-59.75621 -3.88737,-35.34464 -6.25188,-45.2022 -13.65617,-56.9313 -4.92509,-7.80189 -12.58973,-23.7772 -17.03251,-35.5007 -4.44279,-11.7235 -12.09314,-28.81531 -17.00081,-37.98181 -4.90764,-9.16649 -8.92299,-18.77332 -8.92299,-21.34851 0,-2.5752 -9.18548,-14.555877 -20.41219,-26.623747 -11.22671,-12.067871 -20.4122,-24.223303 -20.4122,-27.012072 0,-2.788765 -4.53416,-10.2346 -10.0759,-16.546296 -8.22424,-9.366898 -15.38916,-12.879436 -38.98845,-19.113715 -15.90192,-4.200844 -30.57128,-6.612773 -32.59855,-5.359845 -2.02727,1.252928 -5.95804,0.392384 -8.73506,-1.91232 -3.64762,-3.027258 -13.75741,-3.578561 -36.4228,-1.986188 -19.07646,1.340224 -36.0409,0.785975 -43.28086,-1.414038 -6.54892,-1.990019 -22.84173,-3.7726891 -36.20624,-3.9614896 -19.73689,-0.2788238 -26.76307,1.1334164 -37.42236,7.5217676 -7.21778,4.325773 -17.71598,8.846836 -23.32933,10.046808 -16.1783,3.458449 -12.84046,11.805877 5.56749,13.923489 8.67549,0.998007 18.06752,3.71835 20.8712,6.045208 5.80206,4.815268 26.38525,1.010564 54.06588,-9.993825 20.27258,-8.059313 86.88679,-12.277378 107.01407,-6.776216 7.70825,2.106807 21.86921,10.219672 31.4688,18.028589 13.52944,11.005695 17.45382,16.357548 17.45382,23.802563 0,8.321838 1.31271,9.604531 9.82922,9.604531 11.781,0 21.8405,7.600035 31.98955,24.168346 4.13088,6.74369 12.48617,19.67346 18.56731,28.73282 6.08113,9.05937 11.0566,19.78341 11.0566,23.83119 0,7.17074 9.95612,28.16761 28.21112,59.49563 7.18254,12.3262 10.43934,25.75923 16.08372,66.33964 5.17238,37.18671 9.32096,55.21687 15.41168,66.98082 10.75604,20.77489 11.30149,45.55264 1.28315,58.2889 -3.87805,4.93013 -9.93717,8.96388 -13.46474,8.96388 -9.87579,0 -23.7107,26.27155 -23.7107,45.02499 v 15.5099 l -34.17617,23.31457 c -18.79691,12.82301 -46.49218,31.28485 -61.54508,41.0263 -15.05287,9.74145 -34.08497,23.90241 -42.29353,31.4688 -13.96997,12.87707 -19.35222,15.23502 -32.12287,14.07299 -2.82648,-0.25719 -7.90708,4.54199 -11.29023,10.66483 -6.93749,12.55551 -39.5556,35.27646 -57.92372,40.34811 -21.46975,5.92811 -21.15356,18.02798 0.34068,13.03675 7.02666,-1.63168 13.95813,-3.00321 15.40328,-3.04784 z M 205.01653,557.51554 c -9.82578,-7.98406 -14.07247,-42.01442 -6.07164,-48.65451 4.23911,-3.51818 6.56494,-3.58847 11.03905,-0.33374 3.11763,2.26803 11.0266,6.42787 17.57552,9.24414 6.54891,2.81627 14.44737,6.53905 17.55217,8.27286 3.1048,1.73381 10.75985,2.32236 17.01125,1.30791 20.635,-3.34859 40.10704,20.37807 23.85989,29.07329 -4.72015,2.52615 -7.5765,1.73654 -11.87381,-3.28235 -7.34125,-8.5739 -11.53578,-8.34032 -33.45406,1.8632 -21.49016,10.00422 -26.02174,10.32326 -35.63837,2.5091 z m 32.74902,-5.8779 c 19.12099,-9.68933 31.28649,-10.79529 37.42236,-3.40203 5.78148,6.96627 10.2061,6.40943 10.2061,-1.28447 0,-9.52379 -9.2503,-15.42155 -23.26395,-14.83252 -6.85156,0.28815 -17.05014,-1.61121 -22.66349,-4.22046 -5.61335,-2.60926 -12.50247,-5.58553 -15.30915,-6.61389 -2.80667,-1.02841 -8.17389,-4.1264 -11.92715,-6.88446 -11.01544,-8.09463 -15.66163,-2.15097 -13.07431,16.72545 2.13981,15.61172 10.59906,29.01747 18.31048,29.01747 1.93334,0 11.06794,-3.82729 20.29911,-8.50509 z m -43.874,-71.56107 c -6.66247,-7.58814 -10.55852,-15.69722 -10.55852,-21.97608 0,-10.40723 -14.51681,-26.48285 -38.84066,-43.01132 -12.83437,-8.72121 -18.36598,-20.23274 -12.52778,-26.07093 2.057,-2.05701 3.73999,-7.86278 3.73999,-12.9017 0,-5.03896 2.3096,-10.04801 5.13247,-11.13125 2.82288,-1.08321 6.72953,-5.47459 8.68145,-9.7586 1.95191,-4.284 8.20903,-10.46363 13.90475,-13.7325 5.69568,-3.26888 11.18149,-9.10095 12.19071,-12.96015 1.00921,-3.8592 6.76273,-10.35259 12.78565,-14.42975 6.02289,-4.07715 17.11311,-11.70425 24.6449,-16.94911 14.26918,-9.93648 22.32275,-11.81813 32.37562,-7.5643 4.53827,1.92035 5.95355,0.88318 5.95355,-4.36295 0,-3.92679 5.65588,-11.36172 13.17077,-17.31362 7.71751,-6.11238 13.96766,-14.41585 15.0954,-20.0546 1.19061,-5.95296 5.31098,-11.16608 10.80352,-13.66866 12.70476,-5.78866 15.36284,-5.08913 15.36284,4.04302 0,4.44869 2.29637,9.99435 5.10304,12.32368 9.32491,7.73897 6.26165,19.83679 -6.35792,25.10958 -9.04376,3.77873 -11.93824,7.33293 -13.72407,16.85212 -1.2447,6.63488 -1.34707,15.71324 -0.22726,20.17413 3.34692,13.33527 -5.22113,17.39502 -31.64955,14.99631 -31.08372,-2.82127 -47.50867,4.48235 -60.69967,26.99108 -8.00931,13.66689 -9.57111,20.23574 -9.68215,40.7223 l -0.13234,24.4268 16.15965,17.27906 c 13.65028,14.59588 16.15966,19.37169 16.15966,30.75472 0,27.54544 -9.57829,31.89987 -26.86385,12.21272 z m 21.38446,-5.09904 c 2.45304,-15.34038 -1.47162,-25.26319 -13.84005,-34.99222 -11.91653,-9.37355 -18.10293,-23.77531 -18.10293,-42.14315 0,-33.13869 13.08357,-57.92747 36.64336,-69.42624 12.33833,-6.02194 18.05282,-6.73789 37.8829,-4.74645 26.55337,2.66665 29.40104,0.7673 27.99736,-18.67373 -1.06014,-14.6827 4.51494,-30.62376 10.71004,-30.62376 2.49536,0 7.37105,-2.07229 10.83483,-4.60508 6.09192,-4.45452 6.0496,-5.11787 -1.29451,-20.2888 -6.67261,-13.78378 -8.35086,-15.21002 -13.85375,-11.77342 -3.44378,2.15067 -7.08535,8.02993 -8.09235,13.06502 -1.04562,5.22811 -7.74017,13.83491 -15.60808,20.0664 -7.57742,6.00143 -13.77711,13.75452 -13.77711,17.2291 0,8.04986 -6.25995,12.02593 -11.18293,7.10296 -6.97127,-6.97128 -17.72972,-3.89291 -34.32678,9.82211 -9.05726,7.48447 -17.81273,13.60813 -19.45666,13.60813 -1.6439,0 -6.85462,6.12366 -11.57937,13.60813 -4.72474,7.48448 -10.81373,13.60814 -13.5311,13.60814 -2.71738,0 -6.76842,3.44455 -9.00233,7.65457 -2.23387,4.21001 -6.88047,9.65504 -10.32578,12.10001 -3.48157,2.47076 -6.26416,8.59115 -6.26416,13.77823 0,5.13306 -1.71881,11.05161 -3.81956,13.15236 -4.1878,4.1878 -1.43726,7.25892 32.26651,36.02695 14.54579,12.41562 19.18151,18.59673 19.18151,25.576 0,10.64262 15.09475,34.59725 21.80104,34.59725 2.67883,0 5.44675,-5.63554 6.7399,-13.72251 z m 146.2314,-233.22925 c -10.23212,-5.04319 -10.51163,-5.74284 -7.3192,-18.3201 2.23786,-8.81641 5.65534,-13.68756 10.48986,-14.95182 9.24496,-2.41762 11.54534,0.0723 6.91565,7.48558 -3.01746,4.83178 -2.21261,6.61945 4.38135,9.7313 7.26548,3.42875 8.07788,3.02557 8.07788,-4.00887 0,-8.15664 8.49362,-14.07215 12.01775,-8.36995 2.95559,4.78223 -1.58106,16.83113 -6.33724,16.83113 -2.2369,0 -5.57828,3.34552 -7.42531,7.43449 -4.40692,9.75605 -8.00199,10.47646 -20.80074,4.16824 z m 15.74148,-6.37998 c 0,-4.95706 -9.86767,-12.02681 -16.78651,-12.02681 -1.99414,0 -3.62569,3.06183 -3.62569,6.80406 0,3.74224 1.53092,6.80407 3.40204,6.80407 1.87111,0 3.40203,-1.53092 3.40203,-3.40203 0,-1.87112 1.53091,-3.40204 3.40203,-3.40204 1.87112,0 3.40203,2.29638 3.40203,5.10305 0,2.80668 1.53092,5.10305 3.40204,5.10305 1.87111,0 3.40203,-2.24251 3.40203,-4.98335 z m 17.01016,-15.62962 c 0,-1.76069 -1.53091,-3.20126 -3.40203,-3.20126 -1.87112,0 -3.40203,2.38673 -3.40203,5.30383 0,2.9171 1.53091,4.35767 3.40203,3.20125 1.87112,-1.15641 3.40203,-3.54313 3.40203,-5.30382 z m -23.81423,-6.49652 c 0,-1.81239 -2.29637,-2.41406 -5.10305,-1.33703 -2.80667,1.07702 -5.10304,2.55989 -5.10304,3.29526 0,0.73537 2.29637,1.33703 5.10304,1.33703 2.80668,0 5.10305,-1.48287 5.10305,-3.29526 z m -32.03541,14.71545 c -1.17979,-3.07449 -1.44542,-6.28961 -0.59032,-7.14473 2.7037,-2.70371 8.81151,2.72543 8.81151,7.83243 0,6.67318 -5.57553,6.20679 -8.22119,-0.6877 z m -32.5882,-14.80721 c -3.98436,-3.98438 -6.63835,-9.06229 -5.8977,-11.28424 2.17206,-6.51619 13.15794,-4.64224 18.31457,3.12406 4.09482,6.16714 4.06591,7.73729 -0.20786,11.28424 -3.9962,3.31657 -6.37769,2.7072 -12.20894,-3.12406 z m 10.19109,-4.91728 c 0,-5.41818 -6.17251,-10.47143 -9.1517,-7.49223 -2.79865,2.79864 1.5701,12.3945 5.64291,12.3945 1.92984,0 3.50879,-2.20602 3.50879,-4.90227 z m 10.84963,-10.49795 c -7.83842,-8.47013 -14.25166,-16.89016 -14.25166,-18.71118 0,-1.82103 -3.33382,-6.64478 -7.40847,-10.71945 -5.76886,-5.76883 -7.23616,-10.85118 -6.62978,-22.96372 0.42832,-8.55538 2.85815,-17.65842 5.39967,-20.22898 3.91095,-3.95563 6.51517,-2.77953 16.94927,7.65458 10.42981,10.42983 14.63095,12.32832 27.28103,12.32832 20.34253,0 27.00357,6.94711 24.20941,25.2491 -1.29161,8.46005 -5.07569,16.19709 -9.69695,19.82664 -4.16834,3.27379 -9.59312,7.63825 -12.05513,9.69878 -2.46199,2.06053 -5.24162,2.98114 -6.17701,2.04578 -0.93535,-0.93536 3.65994,-5.78936 10.21175,-10.78668 13.09136,-9.98526 18.29045,-24.7253 12.52254,-35.50276 -2.91306,-5.4431 -6.91446,-6.81348 -19.17613,-6.56736 -13.08511,0.26263 -17.26396,-1.40359 -26.86963,-10.71378 -6.25607,-6.06364 -13.03788,-9.99688 -15.07067,-8.74055 -6.71962,4.15295 -4.24053,29.01428 3.95858,39.69824 21.37772,27.85657 32.18213,39.05942 36.33513,37.67509 2.75116,-0.91706 3.63555,0.009 2.21051,2.31476 -3.83896,6.21157 -6.71289,4.68398 -21.74246,-11.55683 z M 323.88501,88.540068 c -1.27566,-3.324392 0.12146,-6.77853 3.50883,-8.674129 3.09574,-1.732468 5.62863,-4.722549 5.62863,-6.644622 0,-1.922074 4.49823,-7.992913 9.99605,-13.490754 8.66556,-8.665525 12.95031,-10.145933 32.19051,-11.121946 12.20693,-0.619228 24.46449,-3.00987 27.23902,-5.312532 6.63811,-5.50914 19.09418,-3.461752 23.70642,3.896582 6.54272,10.43828 -2.71523,14.787585 -46.64786,21.914735 -7.17825,1.164526 -13.83654,4.163404 -14.79618,6.664177 -2.502,6.520074 -22.67516,18.292675 -31.34579,18.292675 -4.04787,0 -8.31372,-2.485885 -9.47963,-5.524186 z m 30.13956,-9.091225 c 10.08421,-7.682321 23.0383,-13.167853 41.13755,-17.420085 28.52618,-6.701926 32.37949,-9.146671 24.5969,-15.605644 -4.04515,-3.357163 -7.57303,-2.977258 -17.82321,1.919314 -7.39596,3.533079 -19.94585,5.997233 -29.78997,5.849224 -13.996,-0.21045 -18.6512,1.34037 -26.27124,8.751814 -5.0936,4.954166 -9.30361,10.969266 -9.35559,13.36689 -0.052,2.39762 -2.39088,5.240511 -5.19756,6.317537 -7.26147,2.786489 -6.32064,8.034329 1.44042,8.034329 3.59894,0 13.16716,-5.046021 21.2627,-11.213379 z"
       id="path4465" /><path
       style="fill:#000000;stroke:url(#linearGradient5026);stroke-width:20;stroke-dasharray:none"
       d="m 2110.2941,2463.0978 c -12.5093,-2.6683 -13.382,-14.9769 -1.7464,-24.6336 4.7013,-3.9017 28.7054,-14.614 53.3426,-23.8052 83.1918,-31.0355 172.14,-95.5494 225.2065,-163.3415 15.6054,-19.9356 23.163,-24.8534 38.2353,-24.8797 32.9615,-0.059 59.1024,-10.8696 92.315,-38.1821 72.8848,-59.9372 154.9085,-118.3756 342.3284,-243.8946 l 197.2606,-132.1094 3.6364,-51.2302 c 6.5963,-92.9298 52.1843,-181.6097 93.3606,-181.6097 5.7414,0 21.0196,-9.5591 33.9516,-21.2424 50.4975,-45.6214 54.9808,-133.3503 11.8381,-231.6469 -25.4359,-57.9534 -38.708,-113.5609 -58.9789,-247.1107 -28.0269,-184.64774 -35.0485,-209.75051 -83.2427,-297.59974 -52.3068,-95.34565 -79.4704,-153.96335 -84.7298,-182.84241 -5.8172,-31.94137 -29.7622,-77.29397 -86.7855,-164.37449 -70.2429,-107.26821 -97.553,-131.65398 -147.4415,-131.65398 -24.9884,0 -38.8444,-12.84366 -38.8444,-36.0064 0,-9.63546 -4.0366,-25.32499 -8.9703,-34.86563 -13.6406,-26.37814 -82.2059,-79.88571 -137.673,-107.4385 L 2503.7722,100 l -118.0626,0.64938 c -142.6951,0.78486 -215.0736,10.88763 -309.239,43.16436 -37.2059,12.75291 -85.399,26.23117 -107.0959,29.95166 -34.1179,5.85041 -42.067,5.43949 -58.8235,-3.04078 -10.6561,-5.39291 -43.1288,-14.93427 -72.1615,-21.203 -77.5724,-16.74938 -87.5455,-32.7409 -30.7841,-49.3609 16.8463,-4.932679 55.7701,-21.545572 86.4972,-36.917551 l 55.8674,-27.949051 79.4267,0.542468 c 51.8731,0.354283 96.7719,4.198851 129.4266,11.082472 42.542,8.967841 67.5484,10.005614 167.6471,6.957386 106.8389,-3.253486 119.8678,-2.575725 141.8204,7.37748 13.2954,6.028053 30.8231,9.688913 38.9506,8.135244 20.0938,-3.84116 101.603,13.093858 168.0595,34.917392 66.2958,21.7708 103.7749,51.92268 128.434,103.32513 18.5608,38.69066 35.8128,62.28394 93.3497,127.66243 52.1093,59.21106 64.1238,76.51762 73.5054,105.88235 4.1346,12.94118 18.8221,46.16294 32.6389,73.82614 13.8169,27.6632 38.8209,83.25144 55.5644,123.52939 16.7436,40.278 44.4177,99.70329 61.498,132.05624 36.9455,69.98082 39.8951,81.14064 59.3113,224.40023 20.5329,151.49973 28.1237,186.25993 61.4689,281.48213 52.7061,150.5101 94.1632,289.7446 108.5913,364.7059 5.2357,27.2023 -12.6415,49.6896 -80.1418,100.808 -65.6832,49.7425 -118.2225,94.6182 -220.3953,188.2478 -71.1727,65.2216 -94.4694,79.7774 -150.605,94.0984 -52.0455,13.2775 -72.3116,24.9758 -131.5583,75.9401 -40.8495,35.139 -68.9496,53.0512 -128.7273,82.0564 -42.0588,20.4077 -91.0294,47.8511 -108.8235,60.9853 -78.4819,57.9291 -105.0133,74.5137 -147.3287,92.0937 -49.4033,20.5247 -78.6831,39.3349 -131.8285,84.6903 -19.2717,16.4469 -37.8012,29.9066 -41.1765,29.9104 -3.3753,0 -24.6663,3.4449 -47.3134,7.6468 -22.6471,4.2019 -45.8088,6.6518 -51.4706,5.4441 z"
       id="path4467"
       transform="scale(0.26458333)" /><path
       style="fill:#000000;stroke:url(#linearGradient5028);stroke-width:20;stroke-dasharray:none"
       d="m 764.34516,1825.4605 c -22.81711,-24.564 -49.64444,-76.9537 -55.20834,-107.8134 -6.73187,-37.3379 -21.62582,-55.5675 -103.51163,-126.694 -42.32095,-36.7603 -81.62249,-73.255 -87.33675,-81.0995 -9.94614,-13.6538 -9.93049,-15.163 0.36688,-35.3607 5.91604,-11.6039 10.75644,-28.6536 10.75644,-37.8881 0,-22.319 8.02869,-36.4108 42.07149,-73.8435 C 587.16746,1345.5152 600,1328.836 600,1325.6964 c 0,-3.1397 9.32582,-9.6051 20.72405,-14.3675 12.6193,-5.2727 30.44791,-21.6596 45.58823,-41.9018 32.97758,-44.09 43.23388,-53.4957 117.67189,-107.9124 79.98465,-58.4715 106.30466,-66.7792 134.64839,-42.5008 18.61149,15.942 35.83682,7.056 47.00926,-24.2506 7.69683,-21.5676 21.98748,-40.1159 57.10648,-74.1204 34.5924,-33.49473 48.7698,-51.7932 54.2182,-69.97862 8.2715,-27.60758 29.4226,-53.60546 43.6119,-53.60546 5.9738,0 18.2214,18.43531 33.7555,50.8094 l 24.3801,50.8094 -16.4777,14.17358 c -9.0628,7.7955 -24.2072,15.7195 -33.6544,17.6089 -34.5963,6.9192 -52.1113,51.8956 -52.1113,133.8151 0,57.7706 -3.0706,60.0557 -75.9145,56.4968 -133.13745,-6.5049 -166.75595,2.1585 -226.07272,58.2578 -56.53373,53.4672 -81.79127,120.1088 -82.63422,218.029 -0.67458,78.3617 10.37022,107.517 61.00329,161.0321 21.8086,23.05 43.98556,50.3806 49.28213,60.7346 16.44931,32.1561 7.7127,117.1077 -12.74493,123.927 -3.77226,1.2574 -15.04228,-6.524 -25.04449,-17.292 z"
       id="path4469"
       transform="scale(0.26458333)" /><path
       style="fill:#000000;stroke:url(#linearGradient5030);stroke-width:20;stroke-dasharray:none"
       d="m 1253.0918,3822.4941 c -12.3699,-5.3863 -28.5345,-7.5852 -40.9492,-5.5706 -18.6619,3.0284 -23.0102,0.7364 -48.2167,-25.4148 -51.5349,-53.4665 -50.6064,-48.8804 -25.8249,-127.5648 11.8966,-37.7733 34.696,-99.1289 50.6653,-136.3458 15.9692,-37.2169 30.5743,-77.2939 32.4558,-89.0601 5.5643,-34.7972 -52.9171,-245.8415 -98.1948,-354.3596 -32.0029,-76.7021 -39.765,-103.3434 -49.6213,-170.3108 -25.578,-173.7881 -73.5742,-274.5545 -199.93155,-419.75 -57.87333,-66.5014 -108.76857,-135.9638 -108.76857,-148.4486 0,-4.6026 -6.86401,-25.5257 -15.25336,-46.4958 -17.62568,-44.0572 -16.06008,-57.5454 10.1435,-87.3896 29.25841,-33.3235 47.59471,-43.2842 109.0059,-59.2148 31.82777,-8.2563 60.38337,-17.506 63.4569,-20.5549 10.99999,-10.9116 25.9501,-5.1317 55.54027,21.4724 16.52641,14.8586 30.04801,29.13 30.04801,31.7142 0,8.0799 -45.18317,23.228 -89.6826,30.067 -73.01536,11.2216 -95.09313,33.9991 -94.49581,97.4908 0.29082,30.9131 3.23621,41.0454 18.73232,64.4402 10.11297,15.2678 18.38723,31.9855 18.38723,37.1504 0,18.3481 29.69701,52.6332 74.96802,86.5504 51.56705,38.6342 100.63624,62.5378 148.56134,72.3703 17.7942,3.6507 37.1588,10.2536 43.0326,14.6732 10.0446,7.5578 9.1141,10.1622 -15.6473,43.7982 -26.9085,36.5526 -37.6724,70.6742 -30.2688,95.9521 2.172,7.4158 10.554,30.3847 18.6267,51.0418 10.989,28.1197 15.9688,55.778 19.8155,110.058 3.8254,53.9806 8.2304,78.5615 17.2448,96.2312 6.6588,13.0524 17.5963,46.845 24.3056,75.0946 15.19,63.9578 19.1206,71.4557 64.08,122.2342 20.0517,22.6471 41.3314,50.6923 47.2883,62.3228 19.6506,38.3667 166.6276,158.2655 194.0086,158.2655 35.3994,0 60.1475,-37.6589 69.7825,-106.1871 3.388,-24.0972 11.505,-54.2245 18.0377,-66.9496 6.7051,-13.0611 11.491,-33.0029 10.9899,-45.7924 -0.4882,-12.4606 2.1968,-25.7403 5.9669,-29.5104 4.4036,-4.4035 6.8547,-30.4596 6.8547,-72.8677 0,-65.8845 0.047,-66.1062 24.5081,-113.8131 25.9245,-50.5626 65.0162,-100.1738 78.933,-100.1738 12.6385,0 10.6994,5.1927 -20.9023,55.9759 -39.7408,63.8622 -45.7636,92.8435 -33.371,160.5798 14.1324,77.2468 13.493,81.3738 -19.6502,126.8355 -57.0024,78.1885 -55.036,115.8175 12.3339,236.0205 19.946,35.5883 42.5906,80.0654 50.3211,98.8383 12.2315,29.7024 13.0789,36.1631 6.5298,49.7804 -9.7869,20.3491 -41.4742,41.4181 -68.4774,45.5309 -53.7444,8.1856 -80.1009,22.7837 -226.7059,125.5657 -51.4469,36.0683 -99.0939,65.3629 -105.8824,65.099 -6.7884,-0.2641 -21.5395,-4.4845 -32.7802,-9.379 z m 78.1773,-79.171 c 7.0667,-3.6723 30.0544,-20.5156 51.0838,-37.4296 21.0295,-16.914 65.018,-48.2522 97.7525,-69.6404 32.7343,-21.3881 64.1383,-45.9405 69.7865,-54.5607 17.4176,-26.5826 17.6762,-54.6583 0.8713,-94.585 -8.3344,-19.8016 -16.8863,-46.8397 -19.0043,-60.0846 -3.0602,-19.1377 -6.3358,-24.0816 -15.9551,-24.0816 -6.6574,0 -18.3164,5.8359 -25.9088,12.9686 -10.4786,9.8441 -22.9321,13.5498 -51.6898,15.381 -41.6884,2.6545 -43.56,4.0094 -58.3453,42.2386 -16.4016,42.4086 -27.8836,64.7059 -33.3203,64.7059 -2.7835,0 -9.1675,-7.9412 -14.1867,-17.6471 -6.2151,-12.0188 -13.5379,-17.647 -22.9602,-17.647 -17.224,0 -24.4457,8.8106 -29.2865,35.7307 -2.2618,12.5781 -14.391,33.455 -30.1908,51.965 -28.577,33.4788 -35.6235,50.8787 -29.2285,72.1739 6.2227,20.7214 38.0026,68.7812 51.9352,78.54 14.739,10.3235 40.8844,11.2028 58.647,1.9723 z"
       id="path4471"
       transform="scale(0.26458333)" /><path
       style="fill:#000000;stroke:url(#linearGradient5032);stroke-width:20;stroke-dasharray:none"
       d="m 1836.4616,2761.2111 c -7.4178,-7.7482 -18.4969,-37.3818 -18.4969,-49.4742 0,-8.9803 3.4182,-14.3317 14.5602,-22.7943 15.7482,-11.9612 29.9262,-24.6783 60.8987,-54.6237 28.6112,-27.6624 40.497,-36.9435 45.0665,-35.19 1.284,0.4927 3.8096,3.2236 5.6124,6.0687 6.4858,10.2355 1.4969,49.9962 -10.4336,83.1531 -14.9279,41.4874 -32.0968,59.0866 -71.2942,73.0813 -15.042,5.3705 -20.6055,5.323 -25.9131,-0.2209 z"
       id="path4473"
       transform="scale(0.26458333)" /><path
       style="fill:#000000;stroke:url(#linearGradient5034);stroke-width:20;stroke-dasharray:none"
       d="m 812.48288,2114.3189 c -18.89346,-6.9759 -39.45063,-35.9675 -50.53944,-71.2752 -7.85121,-24.9989 -9.66774,-37.3664 -9.68923,-65.9677 -0.0186,-24.7321 0.24946,-27.2854 3.50334,-33.3723 4.43841,-8.3027 9.00367,-11.5255 16.32666,-11.5255 8.08309,0 14.18771,2.8923 35.65815,16.8944 20.6513,13.4679 25.52959,15.9021 73.28723,36.5686 49.35923,21.3596 63.28648,24.6482 113.51279,26.8029 32.46512,1.3928 42.89302,3.5363 56.77122,11.6694 9.9463,5.829 20.7926,18.5293 23.9547,28.0496 3.7782,11.375 2.5104,28.334 -2.5182,33.6867 -6.7661,7.2023 -14.4552,3.9653 -30.285,-12.7497 -13.1626,-13.8984 -22.5791,-18.2772 -41.4357,-19.2681 -27.12093,-1.4251 -52.92317,6.3997 -107.80066,32.6918 -38.3134,18.3562 -61.82149,28.2254 -69.79214,29.3003 -2.77058,0.3736 -7.69976,-0.3037 -10.95372,-1.5052 z"
       id="path4475"
       transform="scale(0.26458333)" /><path
       style="fill:#000000;stroke:url(#linearGradient5036);stroke-width:20;stroke-dasharray:none"
       d="m 1241.3832,338.30597 c -11.4356,-5.71272 -6.6672,-17.23674 10.2398,-24.74675 9.9393,-4.41502 19.1547,-14.44084 20.6054,-22.41759 4.0148,-22.07513 43.7508,-66.16385 69.6013,-77.2255 12.8107,-5.48179 23.7851,-6.97799 61.0278,-8.32022 56.4411,-2.03414 82.032,-7.27164 124.2819,-25.4359 36.2046,-15.56522 45.5727,-15.74022 61.5372,-1.14957 4.8196,4.40479 9.1719,9.63867 9.6719,11.63084 3.145,12.53069 -15.858,20.66641 -93.8803,40.19275 -87.0215,21.77851 -121.2784,36.04338 -170.1388,70.84728 -22.0427,15.70128 -43.2608,28.37005 -58.0688,34.67144 -13.1153,5.58106 -26.1537,6.31124 -34.8774,1.95322 z"
       id="path4477"
       transform="scale(0.26458333)" /><path
       style="fill:#000000;stroke:url(#linearGradient5038);stroke-width:20;stroke-dasharray:none"
       d="m 1468.034,848.87656 c -3.4598,-4.16869 -2.7717,-18.39893 1.1443,-23.66659 4.2657,-5.738 11.7341,-6.7362 16.2927,-2.1776 5.8903,5.89036 3.1901,16.36076 -6.2729,24.3233 -5.6961,4.79297 -8.169,5.12985 -11.1641,1.52089 z"
       id="path4479"
       transform="scale(0.26458333)" /><path
       style="fill:#000000;stroke:url(#linearGradient5042);stroke-width:20;stroke-dasharray:none"
       d="m 1406.8096,903.72469 c -3.1762,-3.17626 -4.7739,-6.7098 -5.5201,-12.20903 -2.2282,-16.42068 -6.285,-22.70499 -14.6573,-22.70499 -4.8622,0 -12.9189,8.14275 -12.9189,13.05692 0,2.11593 -1.4998,5.75382 -3.3328,8.08421 -4.3979,5.59101 -11.5401,5.10219 -16.1547,-1.10566 -6.9634,-9.36748 -4.4263,-37.72326 3.7675,-42.10848 4.6571,-2.49238 11.6856,-1.82611 22.6252,2.14473 18.9828,6.89039 38.4792,22.84229 42.6126,34.86552 2.6581,7.73206 0.7746,16.24362 -4.6254,20.90219 -5.2815,4.55632 -6.4023,4.4684 -11.7961,-0.92541 z"
       id="path4483"
       transform="scale(0.26458333)" /><path
       style="fill:#000000;stroke:url(#linearGradient5044);stroke-width:20;stroke-dasharray:none"
       d="m 1373.3266,816.80531 c -10.0953,-1.23213 -12.0075,-3.40386 -6.684,-7.5913 4.6043,-3.62172 19.7599,-9.71915 24.1577,-9.71915 5.1976,0 8.6772,3.86201 7.5448,8.37389 -1.7367,6.91971 -11.8742,10.5408 -25.0185,8.93656 z"
       id="path4485"
       transform="scale(0.26458333)" /><path
       style="fill:#000000;stroke:url(#linearGradient5046);stroke-width:20;stroke-dasharray:none"
       d="m 1169.6494,797.32874 c -7.3022,-7.6211 -11.7603,-18.45878 -11.7603,-28.58986 0,-21.32549 28.3386,-11.61651 34.6645,11.87629 2.0296,7.53713 0.5564,14.66142 -4.0622,19.64498 -5.6106,6.0539 -11.0422,5.20885 -18.842,-2.93141 z"
       id="path4487"
       transform="scale(0.26458333)" /><path
       style="fill:#000000;stroke:url(#linearGradient5048);stroke-width:5.29167;stroke-dasharray:none"
       id="path4538"
       d="m 339.01176,207.1948 c 1.22179,-0.18261 2.45322,-0.28718 3.6758,-0.46572 1.00775,-0.0868 1.93628,-0.47719 2.80644,-0.97182 0.35761,-0.22302 0.64672,-0.52965 0.98406,-0.77896 0.15825,-0.12646 0.28284,-0.28159 0.43334,-0.41759 0.2626,-0.21754 0.56864,-0.38936 0.86376,-0.56206 0.26553,-0.15372 0.49794,-0.34621 0.6973,-0.57816 0.23998,-0.17458 0.4262,-0.40696 0.63794,-0.61183 0.23418,-0.21013 0.42614,-0.46086 0.6296,-0.69948 0.20701,-0.10881 0.30152,-0.32725 0.4277,-0.51457 0.11129,-0.15527 0.22207,-0.30794 0.31517,-0.47473 0.0817,-0.15535 0.20633,-0.28008 0.29822,-0.42793 0.0709,-0.14583 0.18042,-0.2669 0.25183,-0.41147 0.009,-0.0228 0.0188,-0.0456 0.0281,-0.0684 0,0 -3.48734,-1.9276 -3.48734,-1.9276 v 0 c -0.003,0.0125 -0.006,0.025 -0.009,0.0374 -0.0447,0.13401 -0.16862,0.23432 -0.21809,0.36725 -0.10102,0.1523 -0.22635,0.28827 -0.31263,0.45108 -0.0827,0.15707 -0.1976,0.29453 -0.28372,0.45012 -0.12126,0.18096 -0.25056,0.33741 -0.41629,0.47904 -0.18317,0.23561 -0.36015,0.47822 -0.58717,0.67483 -0.21804,0.21902 -0.45246,0.41575 -0.67627,0.62756 -0.17039,0.20018 -0.3891,0.34973 -0.61283,0.48471 -0.31178,0.19953 -0.64603,0.37185 -0.92527,0.6165 -0.13947,0.13314 -0.26668,0.27815 -0.41791,0.39837 -0.28901,0.26217 -0.55891,0.54914 -0.88956,0.76051 -0.82428,0.4723 -1.70227,0.79916 -2.6539,0.90007 -1.24833,0.17612 -2.50391,0.30281 -3.76259,0.37588 0,0 3.20334,2.28692 3.20334,2.28692 z" /><path
       style="fill:#000000;stroke:url(#linearGradient5050);stroke-width:20;stroke-dasharray:none"
       d="m 1275.2854,761.63934 c -19.007,-18.18935 -43.9601,-46.91106 -75.7572,-87.19873 -33.9197,-42.97707 -38.5168,-50.27588 -45.9445,-72.94604 -7.1486,-21.81819 -10.3766,-41.80393 -10.3545,-64.10711 0.023,-22.8926 3.3174,-36.33046 10.7406,-43.80622 4.6107,-4.64341 7.0556,-4.99152 14.7744,-2.10354 11.1676,4.17832 26.0545,14.72342 43.3243,30.68872 23.4056,21.63756 34.7648,30.01095 47.2149,34.80427 13.5372,5.21188 18.3654,5.79428 55.3715,6.6793 37.2758,0.89147 43.7654,1.66314 53.9101,6.41039 7.5956,3.55445 12.7953,8.35365 17.3414,16.00577 15.1556,25.51076 13.148,59.91609 -5.3066,90.94038 -10.2101,17.16443 -21.7734,29.88134 -41.9155,46.097 -22.1644,17.84377 -37.1329,32.99613 -37.1594,37.61578 -0.01,1.21747 -1.2207,2.8597 -3.0454,4.12064 -1.6685,1.15307 -4.0879,2.92611 -5.3763,3.9401 -5.3895,4.2416 -6.3088,3.87317 -17.8178,-7.14071 z"
       id="path4540"
       transform="scale(0.26458333)" /></g></svg>
