<?xml version="1.0" encoding="UTF-8" standalone="no"?>
<!-- Created with Inkscape (http://www.inkscape.org/) -->

<svg
   width="1024mm"
   height="1024mm"
   viewBox="0 0 1024 1024"
   version="1.1"
   id="svg5"
   xml:space="preserve"
   sodipodi:docname="1024.png"
   inkscape:dataloss="true"
   inkscape:export-filename="1024.png"
   inkscape:export-xdpi="25.4"
   inkscape:export-ydpi="25.4"
   xmlns:inkscape="http://www.inkscape.org/namespaces/inkscape"
   xmlns:sodipodi="http://sodipodi.sourceforge.net/DTD/sodipodi-0.dtd"
   xmlns:xlink="http://www.w3.org/1999/xlink"
   xmlns="http://www.w3.org/2000/svg"
   xmlns:svg="http://www.w3.org/2000/svg"><sodipodi:namedview
     id="namedview7"
     pagecolor="#ffffff"
     bordercolor="#000000"
     borderopacity="0.25"
     inkscape:showpageshadow="false"
     inkscape:pageopacity="0.0"
     inkscape:pagecheckerboard="true"
     inkscape:deskcolor="#d1d1d1"
     inkscape:document-units="mm"
     showgrid="false"
     showborder="false"
     borderlayer="false"
     shape-rendering="crispEdges"
     inkscape:zoom="0.19223955"
     inkscape:cx="1378.4884"
     inkscape:cy="2002.7096"
     inkscape:window-width="1920"
     inkscape:window-height="956"
     inkscape:window-x="0"
     inkscape:window-y="25"
     inkscape:window-maximized="0"
     inkscape:current-layer="layer1" /><defs
     id="defs2"><linearGradient
       id="linearGradient4266"
       inkscape:swatch="solid"><stop
         style="stop-color:#000000;stop-opacity:1;"
         offset="0"
         id="stop4264" /></linearGradient><linearGradient
       id="linearGradient4224"
       inkscape:swatch="solid"><stop
         style="stop-color:#000000;stop-opacity:1;"
         offset="0"
         id="stop4222" /></linearGradient><linearGradient
       id="linearGradient4218"
       inkscape:swatch="solid"><stop
         style="stop-color:#000000;stop-opacity:1;"
         offset="0"
         id="stop4216" /></linearGradient><linearGradient
       id="linearGradient2250"
       inkscape:swatch="solid"><stop
         style="stop-color:#000000;stop-opacity:1;"
         offset="0"
         id="stop2248" /></linearGradient><linearGradient
       inkscape:collect="always"
       xlink:href="#linearGradient4224"
       id="linearGradient4226"
       x1="1362.0787"
       y1="2119.2893"
       x2="2582.9104"
       y2="2119.2893"
       gradientUnits="userSpaceOnUse" /><linearGradient
       inkscape:collect="always"
       xlink:href="#linearGradient4266"
       id="linearGradient4268"
       x1="1077.0698"
       y1="1425.3051"
       x2="1300.7017"
       y2="1425.3051"
       gradientUnits="userSpaceOnUse" /><linearGradient
       inkscape:collect="always"
       xlink:href="#linearGradient4266"
       id="linearGradient4270"
       x1="1360.282"
       y1="1318.2206"
       x2="1598.5175"
       y2="1318.2206"
       gradientUnits="userSpaceOnUse" /><linearGradient
       inkscape:collect="always"
       xlink:href="#linearGradient4266"
       id="linearGradient4272"
       x1="1667.1907"
       y1="1259.7347"
       x2="1899.5532"
       y2="1259.7347"
       gradientUnits="userSpaceOnUse" /><linearGradient
       inkscape:collect="always"
       xlink:href="#linearGradient4266"
       id="linearGradient4274"
       x1="1975.3579"
       y1="1259.2979"
       x2="2213.3193"
       y2="1259.2979"
       gradientUnits="userSpaceOnUse" /><linearGradient
       inkscape:collect="always"
       xlink:href="#linearGradient4266"
       id="linearGradient4276"
       x1="2281.0083"
       y1="1317.7017"
       x2="2519.2437"
       y2="1317.7017"
       gradientUnits="userSpaceOnUse" /><linearGradient
       inkscape:collect="always"
       xlink:href="#linearGradient4266"
       id="linearGradient4278"
       x1="2573.0334"
       y1="1419.0312"
       x2="2798.3477"
       y2="1419.0312"
       gradientUnits="userSpaceOnUse" /></defs><g
     inkscape:label="Layer 1"
     inkscape:groupmode="layer"
     id="layer1"><path
       style="fill:#000000;stroke-width:0.801583"
       d="m 363.2019,1022.7733 c -3.5358,-2.9752 -9.35455,-13.2507 -10.02132,-17.697 -0.72093,-4.8076 -4.66802,-15.50657 -7.72978,-20.95247 -1.32634,-2.3592 -2.25179,-4.449 -2.05654,-4.6443 0.19525,-0.1953 1.93229,-1.1508 3.8601,-2.1233 1.98154,-0.9998 4.34743,-3.075 5.44296,-4.7743 1.74104,-2.70064 2.28503,-3.00596 5.3561,-3.00596 2.82435,0 3.68361,-0.383 4.94555,-2.20435 2.20122,-3.177 2.71146,-4.78153 3.37751,-10.62098 0.32685,-2.86566 1.06423,-7.74425 1.63864,-10.84125 1.30961,-7.06107 0.69374,-9.53122 -3.2827,-13.166 -3.70745,-3.38894 -4.75476,-6.44802 -4.75476,-13.88799 0,-5.9221 -1.26476,-9.81587 -4.39774,-13.53922 -1.87868,-2.23273 -2.01492,-2.97716 -2.01492,-11.01079 0,-9.86837 -0.19518,-10.21754 -7.85407,-14.05063 -4.714,-2.35914 -7.7639,-6.37363 -10.66963,-14.0439 -2.83492,-7.48333 -2.82363,-9.53891 0.0781,-14.20677 l 2.55742,-4.11405 -1.6749,-3.78636 c -2.0949,-4.73583 -2.08898,-4.96981 0.23642,-9.34325 3.66326,-6.88969 3.51325,-9.32329 -0.90176,-14.62841 -1.72547,-2.07338 -1.89645,-2.85091 -1.43644,-6.53266 0.51194,-4.09746 0.45217,-4.25801 -3.05579,-8.20781 -1.96788,-2.21574 -3.82843,-5.22778 -4.13457,-6.69345 -0.30613,-1.46568 -1.74339,-4.82915 -3.19391,-7.47437 -1.97916,-3.60928 -2.86816,-6.56812 -3.56239,-11.85661 -0.98223,-7.48237 -4.83602,-19.58391 -7.37381,-23.15494 -0.83904,-1.18065 -2.73834,-2.5469 -4.22066,-3.03612 -3.48846,-1.1513 -4.93258,-2.83852 -6.06302,-7.08367 -0.98191,-3.68741 -1.72049,-4.54912 -7.07266,-8.25194 -1.88829,-1.30638 -4.05257,-3.3884 -4.8095,-4.62672 -2.74243,-4.48649 -10.4761,-10.35599 -16.08588,-12.20842 -2.93147,-0.96802 -6.31326,-2.57798 -7.5151,-3.5777 -1.20183,-0.99973 -3.36611,-2.064 -4.8095,-2.36505 -4.30421,-0.89778 -6.00157,-2.48476 -7.45771,-6.97275 -1.94089,-5.98206 -4.28813,-8.15099 -11.05959,-10.21941 -14.96925,-4.57253 -15.3396,-4.77052 -16.28166,-8.70418 -0.9329,-3.89542 -2.53294,-6.21769 -5.31704,-7.71702 -3.79234,-2.04231 -6.12678,-1.25525 -11.83117,3.98897 -2.65279,2.43878 -5.52576,4.38529 -6.47252,4.38529 -0.93633,0 -2.85881,-1.26249 -4.27219,-2.80554 -3.00654,-3.28238 -3.76956,-3.37535 -8.93814,-1.08903 -2.24301,0.99218 -5.65304,1.74213 -8.08118,1.77722 -5.7671,0.0834 -7.71685,-1.83994 -9.51034,-9.38134 -0.75019,-3.15444 -2.28044,-7.33958 -3.40054,-9.3003 -1.3621,-2.38433 -1.72446,-3.66898 -1.09414,-3.87909 3.35941,-1.11981 4.92187,-8.88021 3.3309,-16.54389 -1.20592,-5.80884 -3.56318,-8.50867 -11.35129,-13.00084 -9.70146,-5.5958 -10.34664,-8.37055 -3.49037,-15.01122 3.37165,-3.26563 4.40456,-4.81701 4.39111,-6.5952 -0.025,-3.30253 -2.70279,-8.78322 -5.03937,-10.3142 -1.24626,-0.81659 -2.31377,-2.60646 -2.86854,-4.80963 -0.73471,-2.91778 -1.45831,-3.82547 -4.29447,-5.387 -3.85642,-2.12326 -4.61711,-4.28817 -2.59248,-7.37814 1.80798,-2.75932 1.36034,-3.87603 -2.82237,-7.04071 -3.129,-2.36743 -3.71591,-3.2922 -4.42782,-6.97671 -0.68402,-3.5401 -1.33067,-4.62776 -3.88266,-6.53057 -4.41604,-3.29267 -5.26235,-4.72884 -5.29094,-8.97853 -0.0219,-3.25225 -0.33778,-3.98371 -2.22985,-5.16321 -1.21239,-0.7558 -5.81147,-3.72029 -10.22018,-6.58776 -4.40871,-2.86748 -10.53235,-6.24329 -13.6081,-7.50182 -3.07575,-1.25853 -6.275198,-2.90143 -7.109878,-3.6509 -0.83469,-0.74947 -2.93641,-4.34279 -4.6705,-7.98516 -1.73409,-3.64236 -3.98711,-7.16909 -5.00671,-7.83716 -1.69339,-1.10954 -1.79449,-1.54231 -1.16821,-5.00047 0.3771,-2.08218 1.2725,-5.35073 1.98979,-7.26344 2.00059,-5.33468 1.22475,-10.8398 -2.34202,-16.61844 -3.16441,-5.12673 -3.53738,-7.8239 -2.20502,-15.94563 0.54963,-3.35036 1.23543,-4.48922 4.3443,-7.21425 2.44604,-2.14404 4.10356,-4.45294 4.91249,-6.84298 0.78945,-2.33251 2.49078,-4.74011 4.81473,-6.81346 4.595088,-4.09957 5.084078,-6.81446 1.44506,-8.02295 -1.41482,-0.46986 -3.39874,-1.62295 -4.4087,-2.56245 -1.00996,-0.93949 -4.90235,-2.71139 -8.64975,-3.93755 -5.94646,-1.94572 -7.3638,-2.79555 -11.1384,-6.67855 -2.37872,-2.44703 -4.99365,-5.9435 -5.81096,-7.76993 -1.5852,-3.54238 -2.68766,-4.29427 -6.29655,-4.29427 -4.33328,0 -4.93271,-0.63501 -4.33869,-4.59624 0.63904,-4.26141 -0.0952,-4.99244 -5.03261,-5.01048 -1.84768,-0.006 -3.546,-0.31417 -3.77404,-0.68315 -0.22804,-0.36898 1.19352,-1.8044 3.15902,-3.18981 1.96551,-1.38542 3.57365,-2.99557 3.57365,-3.57811 0,-0.58253 -1.60425,-1.83857 -3.56501,-2.79118 -5.17464,-2.51403 -5.41032,-4.84773 -1.60888,-15.93145 4.05519,-11.82357 5.05519,-13.60232 10.64094,-18.92762 5.09758,-4.8599 6.72716,-5.39116 10.52028,-3.42966 4.1467,2.14434 8.22296,2.30064 14.40139,0.55219 3.18578,-0.90155 6.21942,-1.47529 6.74142,-1.27498 0.522,0.2003 1.95899,1.9605 3.19331,3.91154 3.18921,5.04105 16.371138,13.33534 19.366688,12.18584 0.58176,-0.22324 1.56891,-1.93936 2.19365,-3.8136 1.80648,-5.41943 2.94243,-5.58488 8.36461,-1.21829 14.93948,12.03111 14.10425,11.7179 26.0331,9.76206 12.05985,-1.97732 15.26264,-4.14492 22.52971,-15.24768 4.18849,-6.39926 4.69862,-7.6108 4.39802,-10.44523 -0.48268,-4.55131 -3.2011,-11.07052 -6.18968,-14.84391 -3.21066,-4.05379 -2.83198,-6.09991 1.81741,-9.82001 5.00433,-4.00409 16.25514,-10.20495 18.5158,-10.20495 1.07795,0 3.96204,1.05318 6.40908,2.34041 5.17345,2.72138 7.36223,2.49913 9.24713,-0.93895 0.71268,-1.29992 2.31658,-3.80696 3.56425,-5.57118 2.4605,-3.4792 2.72008,-3.51515 9.84393,-1.36346 3.21067,0.96976 3.42263,0.91183 8.28273,-2.26376 6.03567,-3.94371 16.15108,-7.7895 18.76368,-7.13378 1.0269,0.25773 4.35941,2.45839 7.40559,4.89034 3.15823,2.52141 6.71888,4.64534 8.28504,4.94204 2.39725,0.45414 3.0089,0.2073 4.8095,-1.94101 1.13463,-1.35373 3.32545,-4.51792 4.8685,-7.03152 1.54907,-2.52342 4.60049,-5.92155 6.81345,-7.58762 2.20436,-1.65959 5.4338,-4.49924 7.17654,-6.31034 2.93766,-3.05291 3.48193,-3.29291 7.46734,-3.29291 5.18973,0 6.94486,-0.8245 10.60599,-4.9823 2.6416,-2.99997 3.12661,-3.21192 8.30005,-3.62711 l 5.49451,-0.44095 -0.52278,-3.26932 c -0.64811,-4.05298 -2.01182,-5.61149 -5.93994,-6.78838 -1.68461,-0.50473 -3.71862,-1.64222 -4.52004,-2.52776 -0.80141,-0.88555 -2.09686,-1.61009 -2.87878,-1.61009 -2.32197,0 -3.67938,-2.01469 -5.94893,-8.82956 -1.66552,-5.00106 -2.76197,-6.94022 -4.87959,-8.62987 -3.14572,-2.50997 -3.47164,-4.76927 -1.22578,-8.49741 0.82809,-1.37465 1.75884,-3.91933 2.06833,-5.65484 0.30948,-1.73551 1.59358,-4.62121 2.85354,-6.41266 3.26745,-4.64579 12.28513,-14.07857 13.45902,-14.07857 0.54475,0 2.59977,1.48342 4.56671,3.29648 4.64471,4.28135 7.10149,3.96223 8.46782,-1.09991 2.38187,-8.82454 9.04345,-20.90726 12.05355,-21.86263 0.79069,-0.25096 2.23531,-1.79034 3.21025,-3.42084 4.04402,-6.76322 6.72171,-8.12819 9.03107,-4.60368 2.66258,4.06363 4.62486,5.24626 8.70484,5.24626 6.71969,0 10.03929,-2.57629 12.37585,-9.60472 1.20318,-3.61918 2.01695,-4.70434 4.61287,-6.15124 1.73357,-0.96625 3.63059,-2.67034 4.21559,-3.78686 0.70257,-1.34091 2.00383,-2.2064 3.83333,-2.54962 4.35988,-0.81792 4.97771,-2.25624 2.07871,-4.83927 -2.75446,-2.45423 -2.99799,-4.20177 -1.26863,-9.10329 1.03174,-2.92428 1.03875,-3.66332 0.0528,-5.56985 -0.6252,-1.20901 -1.70158,-2.66698 -2.39196,-3.23995 -1.58205,-1.31298 -1.61801,-4.78029 -0.0725,-6.98686 0.65118,-0.9297 2.52581,-1.94059 4.17103,-2.24924 9.07573,-1.70262 11.83993,-5.72395 11.86421,-17.26 0.0226,-10.74499 -1.74739,-14.16992 -10.14934,-19.63879 l -6.15747,-4.007923 0.44766,-4.489366 c 0.57399,-5.7563 -0.71136,-9.60534 -4.24318,-12.70631 -3.69892,-3.24769 -6.482,-4.31887 -15.47617,-5.95663 -7.60055,-1.383996 -10.49647,-2.386766 -10.49647,-3.634621 0,-0.373492 1.44285,-2.121926 3.20633,-3.885409 5.30886,-5.308861 4.02487,-9.103898 -4.4498,-13.152012 l -5.07857,-2.425895 1.98549,-4.489538 c 1.09202,-2.469247 2.13299,-4.637047 2.31328,-4.817336 0.18029,-0.180287 1.39621,0.43298 2.70205,1.362818 2.64988,1.886881 6.94902,2.198264 10.1588,0.73579 1.7461,-0.795577 2.58795,-0.702372 5.04761,0.558847 1.62361,0.832519 3.16363,1.607783 3.42229,1.722808 0.25865,0.115026 2.21796,-0.721222 4.35401,-1.858329 4.0727,-2.168067 3.8654,-2.160501 15.75553,-0.57494 3.31098,0.441522 3.98666,0.259533 5.81148,-1.565292 1.26085,-1.260847 2.0649,-2.961962 2.0649,-4.368658 0,-3.570729 4.54072,-9.764112 8.41513,-11.47795 4.27784,-1.892293 5.57158,-3.413013 7.21953,-8.486197 0.74312,-2.287677 1.83312,-4.812664 2.42224,-5.611082 1.01485,-1.375419 1.3351,-1.30732 6.09709,1.296516 3.99477,2.184326 6.34968,2.871365 11.47755,3.348551 3.54837,0.330201 9.02779,0.855954 12.17651,1.168339 7.18341,0.712669 8.08597,-0.262548 6.19935,-6.698399 -0.66459,-2.267145 -1.09444,-5.285653 -0.95523,-6.7077928 0.23553,-2.406225 0.55703,-2.662383 4.63159,-3.690266 2.40817,-0.607505 5.50122,-0.89393 6.87345,-0.636498 2.45309,0.460202 5.75872,3.331476 7.40682,6.4335608 0.46074,0.867219 3.10532,2.858344 5.87685,4.424724 4.65135,2.628785 5.1808,3.216864 6.87972,7.641444 2.09782,5.463471 4.21968,7.599024 7.55025,7.599024 1.79302,0 2.31595,0.367441 2.31595,1.627319 0,0.895026 0.92137,3.816381 2.04748,6.491901 3.15668,7.49995 3.14446,7.51165 -7.84573,7.51165 -8.57633,0 -9.53366,0.150468 -11.13535,1.750204 l -1.75235,1.750205 3.3311,2.990394 c 4.97034,4.461962 4.34543,7.922637 -1.85845,10.291919 -3.93113,1.501314 -6.03261,4.329077 -6.03261,8.117528 0,2.311099 -0.56441,2.258346 7.15249,0.668497 2.08812,-0.430199 2.57141,-0.120856 4.44293,2.843832 1.15497,1.829597 2.63278,3.531004 3.28401,3.780904 0.65123,0.2499 2.95715,-0.3084 5.12426,-1.240667 5.8246,-2.505671 6.79085,-2.278077 8.96866,2.112487 1.03873,2.09414 2.70551,4.20414 3.70396,4.6889 0.99845,0.48476 3.1975,2.3785 4.88677,4.20831 2.77852,3.00968 3.43699,3.32693 6.90529,3.32693 3.44563,0 4.17635,0.34501 7.21548,3.40673 1.85988,1.8737 4.43192,4.173986 5.71564,5.111746 1.54635,1.12962 2.6685,2.95558 3.32515,5.410693 1.3434,5.02284 3.36429,4.95962 9.66156,-0.302253 3.83099,-3.20111 5.38543,-4.00792 7.72185,-4.00792 1.6089,0 4.61927,-0.90178 6.68971,-2.00396 2.07043,-1.102166 4.4129,-2.003946 5.2055,-2.003946 3.4282,0 8.72078,3.925326 17.40888,12.911599 5.99182,6.19746 9.80427,9.53425 10.89269,9.53365 1.53267,-8e-4 4.28678,-1.71979 9.6761,-6.03925 1.53195,-1.22783 2.13479,-2.61124 2.44511,-5.61108 0.48148,-4.654563 1.79839,-5.985423 5.92271,-5.985423 2.93727,0 3.00332,0.0705 4.65675,4.966523 2.9663,8.78367 7.15252,11.21445 14.22447,8.2596 4.93591,-2.06235 5.57598,-1.72937 6.59078,3.42877 0.50111,2.54714 1.81054,5.95477 2.90983,7.57252 2.62563,3.86396 2.53147,5.05908 -0.80683,10.24066 -3.2458,5.03798 -3.66363,8.86817 -1.20238,11.02177 0.88174,0.77152 2.30449,2.01391 3.16166,2.76087 1.22418,1.06677 1.54641,2.3564 1.50214,6.01187 -0.031,2.55958 0.53016,6.61299 1.24704,9.00758 0.71688,2.39459 1.30341,5.69258 1.30341,7.32888 0,2.99063 0.92195,3.93338 3.87308,3.96046 3.10336,0.0285 3.60817,1.14442 2.5372,5.60872 -1.8675,7.78463 1.53084,15.7997 7.30343,17.22535 3.05587,0.75469 6.63781,-4.05279 8.273,-11.1036 1.37095,-5.91142 3.2534,-10.13958 4.51432,-10.13958 0.44506,0 1.76724,0.62774 2.93818,1.39497 1.17094,0.76722 3.95338,1.57883 6.1832,1.80356 l 4.05421,0.4086 0.57061,4.58808 c 0.31383,2.52346 1.12582,5.66178 1.80443,6.97405 0.72855,1.40885 1.23383,4.4588 1.23383,7.44753 0,3.53013 0.48506,5.96659 1.60316,8.05273 2.01936,3.76769 2.0105,5.5914 -0.0558,11.48851 -0.91242,2.60402 -1.72403,6.90352 -1.80356,9.55443 -0.12742,4.2469 0.18071,5.32774 2.59207,9.09255 1.61196,2.51674 3.00252,5.95452 3.38356,8.3649 0.74211,4.6946 2.63016,6.96064 8.41613,10.10112 4.3101,2.33942 5.63629,4.39703 6.30848,9.78779 0.50114,4.01896 2.77076,7.13116 5.20051,7.13116 0.84404,0 3.10239,-1.59028 5.01857,-3.53394 2.79587,-2.83599 4.23661,-3.64681 7.29492,-4.10544 11.39659,-1.70902 22.14742,3.6252 22.15768,10.99392 0.005,3.50695 1.4264,6.22043 3.79442,7.24307 1.22125,0.52739 3.5507,2.12497 5.17655,3.55016 1.62586,1.42519 4.41479,3.02829 6.19761,3.56244 3.08782,0.92513 3.56295,0.81336 10.02205,-2.35764 3.7293,-1.83086 7.82249,-3.32882 9.09597,-3.32882 3.08115,0 10.73975,5.38324 11.40389,8.01583 0.98045,3.88633 -0.68339,8.43604 -4.80935,13.15101 -4.65751,5.3224 -6.01183,9.39474 -5.22114,15.69969 0.30451,2.42825 0.61247,6.20468 0.68435,8.39205 0.12902,3.92656 0.0935,3.98763 -2.79483,4.8095 -6.13797,1.74654 -8.77728,6.4896 -6.23284,11.20094 0.84882,1.57169 2.25101,4.16947 3.11598,5.77284 1.97583,3.66255 1.47178,4.69369 -4.58393,9.3775 -8.95085,6.92307 -10.47946,10.28701 -6.30582,13.87701 4.31989,3.71583 11.09525,4.39052 18.93608,1.88569 2.76009,-0.88175 5.38641,-1.60317 5.83628,-1.60317 0.44985,0 2.73946,1.98392 5.088,4.40871 2.34854,2.42479 4.92878,4.4087 5.73386,4.4087 0.80507,0 2.68744,-1.26249 4.18302,-2.80554 1.49558,-1.54304 3.15924,-2.80554 3.69701,-2.80554 0.53778,0 2.09822,1.41468 3.46765,3.14372 1.99174,2.51479 3.30046,3.31756 6.54157,4.01266 4.74052,1.01666 6.30371,1.77933 11.05772,5.39503 4.47805,3.4058 7.57665,3.50332 11.33756,0.35677 2.09961,-1.75662 3.11678,-2.14005 4.17804,-1.57496 1.67033,0.8894 3.41433,0.0834 6.15159,-2.84299 2.35874,-2.52173 4.90256,-2.65855 6.95028,-0.37382 0.8399,0.93706 4.1684,2.96159 7.39677,4.49896 7.63925,3.63781 8.50376,5.30294 5.51425,10.62108 -2.81203,5.00245 -2.73131,6.50997 0.53402,9.97218 3.48512,3.69532 6.98387,3.78497 15.75207,0.40361 3.507,-1.35244 7.37304,-2.3444 8.59112,-2.20435 l 2.21478,0.25465 0.40079,8.41662 c 0.31125,6.53649 0.76856,9.04272 2.04732,11.21944 2.04324,3.47817 6.28089,6.41539 9.25572,6.41539 1.91547,0 2.37213,-0.4452 3.08329,-3.00594 0.45915,-1.65326 0.83686,-4.35861 0.83926,-6.01187 0.008,-3.63382 2.2591,-6.21227 5.42984,-6.21227 1.40782,0 3.63759,-1.17217 6.09917,-3.20633 2.13405,-1.76349 4.01361,-3.20634 4.17681,-3.20634 0.16312,0 2.66438,0.77727 5.55826,1.72726 5.15738,1.69305 5.40868,1.70099 12.68785,0.40079 4.08447,-0.72956 7.67612,-1.32646 7.98137,-1.32646 0.30532,0 0.55509,1.426 0.55509,3.16891 0,3.31062 0.0705,3.39339 6.41267,7.5428 2.18912,1.43223 2.73404,2.26233 2.48018,3.77813 -1.05737,6.31404 -0.67382,7.40954 3.53169,10.08734 5.34888,3.40579 7.61504,5.54302 7.61504,7.1817 0,0.7458 -1.89374,3.11534 -4.20831,5.26564 -3.92744,3.64867 -4.4758,3.90329 -8.21623,3.81459 -2.20435,-0.0523 -4.64806,-0.0643 -5.43056,-0.0267 -2.2345,0.10734 -3.01019,3.37346 -2.11747,8.91642 0.43679,2.7123 0.59831,5.5486 0.35887,6.30288 -0.23935,0.75428 -2.14656,2.28391 -4.23805,3.39917 -6.8278,3.6407 -8.27137,9.85802 -3.64079,15.68058 6.37892,8.02092 7.14331,10.64098 4.56101,15.63449 -0.9239,1.78664 -1.14682,3.5619 -0.78747,6.27068 0.55012,4.14715 0.0313,6.38759 -1.47917,6.38759 -0.53858,0 -2.65676,1.11118 -4.70713,2.46929 l -3.72792,2.46928 -3.55022,-1.77306 c -4.62762,-2.31113 -6.54925,-1.76203 -11.18769,3.1968 -4.74954,5.0777 -4.83026,7.10595 -0.51277,12.89265 7.34065,9.83875 5.23962,18.54952 -2.50944,10.40362 -4.26955,-4.48826 -4.86441,-4.20438 -4.22691,2.0174 0.6363,6.21092 -0.43894,7.98269 -5.34784,8.81204 -4.58185,0.7741 -6.87486,2.98729 -8.34905,8.05833 -0.7789,2.67929 -2.42399,5.68379 -4.1708,7.6173 -1.58649,1.75608 -3.4658,4.35633 -4.17624,5.77834 -0.78892,1.57899 -2.23979,2.8975 -3.72704,3.38704 -3.37627,1.11127 -6.59503,3.81008 -7.55468,6.33431 -0.46484,1.22257 -0.59013,4.69437 -0.29531,8.18204 0.46019,5.44474 0.74315,6.22918 2.79352,7.74509 1.48517,1.09801 2.27714,2.40354 2.26904,3.74036 -0.009,1.42807 1.01681,2.93888 3.36633,4.95988 l 3.37883,2.90627 -0.93961,5.05219 c -0.71758,3.85872 -1.49311,5.55783 -3.28305,7.19265 -2.53637,2.31666 -4.37953,5.49808 -5.22343,9.01626 -0.29354,1.22351 -1.82898,3.65832 -3.4121,5.41068 -3.9284,4.34822 -6.23448,4.26387 -11.50937,-0.421 -3.3624,-2.98626 -4.6087,-3.60712 -7.24102,-3.60712 -4.9715,0 -6.58333,2.12379 -5.95841,7.85119 0.91276,8.36563 -2.34223,9.54565 -15.07975,5.4669 -5.64262,-1.80684 -7.27088,-2.05951 -8.21623,-1.27494 -1.40975,1.16999 -1.50558,4.38638 -0.27617,9.26883 0.82314,3.26895 0.71699,3.94369 -1.20237,7.64318 -2.79333,5.38403 -2.65642,8.49904 0.70033,15.93349 1.54305,3.41751 2.80554,6.61185 2.80554,7.09852 0,1.96746 2.64759,7.32998 3.61897,7.32998 0.57208,0 2.34666,-1.81856 3.9435,-4.04124 2.81525,-3.91865 4.46128,-4.54253 4.46128,-1.69094 0,0.76309 0.55758,3.53733 1.23917,6.16496 0.93761,3.61511 2.08508,5.65515 4.71595,8.38464 2.30063,2.38689 3.95189,5.09851 4.88132,8.01583 0.77249,2.42479 1.90945,5.40736 2.52659,6.62793 1.04078,2.05851 0.95292,2.46487 -1.21263,5.61108 -1.28406,1.86552 -4.17817,5.11573 -6.43151,7.22267 l -4.09681,3.83081 -5.01937,-0.51237 c -4.45765,-0.45503 -5.19021,-0.32309 -6.54634,1.17908 -2.78804,3.08828 -6.88961,1.49172 -6.88961,-2.68183 0,-2.47499 -5.72599,-16.08706 -7.34879,-17.46987 -0.90543,-0.77152 -2.85144,-1.40277 -4.32446,-1.40277 -2.2771,0 -3.05464,-0.54709 -5.19136,-3.6527 -2.20139,-3.1996 -2.82761,-3.62219 -5.0484,-3.40673 -2.03239,0.19718 -3.06447,1.04098 -5.20311,4.25389 -1.4673,2.20435 -3.18612,4.12559 -3.81959,4.26941 -0.63347,0.14383 -2.25614,-0.66778 -3.60594,-1.80356 -1.3498,-1.13578 -3.3462,-2.06506 -4.43644,-2.06506 -1.93911,0 -1.97094,0.10033 -1.46208,4.6091 l 0.52018,4.60911 -3.34244,2.99803 c -3.88247,3.48241 -3.84935,3.9597 0.79304,11.43046 4.13614,6.65608 4.52598,8.75849 2.07799,11.20649 -4.45368,4.45368 -8.93598,3.40588 -12.30014,-2.87531 -1.2193,-2.27656 -3.24624,-5.35292 -4.5043,-6.83637 -1.92444,-2.26922 -2.81476,-2.69439 -5.61108,-2.67958 -1.82803,0.01 -4.81888,0.69654 -6.64633,1.52634 -2.74668,1.24719 -3.82666,2.46787 -6.23027,7.04194 -1.78353,3.39405 -4.2997,6.69685 -6.50839,8.54308 -1.98043,1.65543 -4.50964,4.80343 -5.62046,6.99554 -2.85311,5.63034 -4.59355,7.13724 -8.24333,7.13724 h -3.07205 l 0.0661,7.08001 0.0661,7.08 -3.20634,3.79624 c -6.69937,7.93193 -6.43562,7.41319 -5.3275,10.47762 1.21712,3.36588 0.6973,4.57864 -4.64783,10.8437 -2.06874,2.42479 -3.97441,4.98409 -4.23482,5.68724 -0.72238,1.95073 1.96817,7.18915 6.05714,11.79313 4.40123,4.95554 5.8734,9.35816 4.51032,13.4884 -0.85654,2.59528 -3.52529,4.61191 -4.97432,3.7587 -0.33066,-0.1947 -0.60119,-2.49701 -0.60119,-5.11618 0,-2.61926 -0.29784,-4.76221 -0.66186,-4.76221 -0.94932,0 -3.66521,3.15832 -5.43479,6.32016 -1.10663,1.97727 -3.03387,3.44457 -7.10686,5.41069 -3.07365,1.48373 -6.08655,2.69765 -6.69532,2.69765 -0.60877,0 -2.85899,0.9849 -5.00049,2.18872 l -3.89364,2.18872 -3.83954,-1.52148 c -2.11174,-0.83686 -5.56808,-1.67732 -7.68075,-1.86761 -2.92043,-0.26308 -4.13738,-0.79806 -5.07667,-2.23161 -2.47832,-3.78235 -3.68059,-9.46854 -3.584,-16.9506 l 0.0952,-7.37256 -3.4836,-4.27692 c -4.93807,-6.06262 -5.92499,-7.71829 -7.733,-12.97339 -0.881,-2.56069 -2.81407,-5.99761 -4.29569,-7.63759 -1.72879,-1.91356 -2.88409,-4.17133 -3.22483,-6.30219 -0.3278,-2.04999 -1.51374,-4.43974 -3.09959,-6.24592 -2.13799,-2.43504 -2.54313,-3.51186 -2.41644,-6.42278 0.17829,-4.09653 0.16616,-4.10219 -10.00403,-4.67846 -6.87601,-0.38961 -10.04576,-1.52379 -12.52481,-4.48156 -1.19403,-1.42459 -2.03318,-1.67313 -4.40871,-1.30577 -2.33931,0.36175 -3.99002,1.59802 -8.14427,6.09943 -3.8184,4.1375 -6.92339,6.55817 -11.62295,9.06132 -5.22459,2.7828 -6.88882,4.15755 -8.98274,7.42028 -4.36617,6.80334 -5.88406,8.4054 -9.88445,10.43255 -2.12648,1.07757 -4.34233,2.6071 -4.92411,3.39891 -1.93819,2.63801 -5.65701,5.00252 -7.86766,5.00252 -1.20173,0 -5.93253,1.74216 -10.51287,3.87156 -11.07608,5.14913 -14.75104,6.09091 -21.19228,5.43105 l -5.21524,-0.53434 -4.19738,3.96968 c -2.30855,2.18336 -5.1578,4.2108 -6.33167,4.50538 -2.90054,0.728 -4.22151,2.46856 -5.46821,7.20495 -0.88493,3.362 -2.13368,5.07362 -7.7488,10.62098 -3.68163,3.63718 -7.36129,6.61306 -8.17705,6.61306 -0.81575,0 -2.39794,-0.71958 -3.51596,-1.599 -3.17472,-2.49725 -9.49334,-3.67814 -13.40677,-2.50567 -2.70721,0.81112 -3.65449,1.70481 -5.75806,5.43209 -4.09679,7.25914 -8.98944,9.24602 -18.39682,7.471 -4.98377,-0.94034 -5.64709,-0.9074 -7.03638,0.34989 -1.61993,1.46601 -2.81841,4.10963 -3.66566,8.08573 -0.32655,1.53246 -2.4394,4.23436 -5.82493,7.44871 l -5.31252,5.04404 1.02674,2.83937 c 1.39598,3.8605 0.53912,7.56798 -2.39864,10.37849 -5.13334,4.91106 -5.39906,5.88787 -5.65278,20.78121 l -0.23214,13.62691 3.47381,6.41267 c 1.91059,3.52696 4.17394,7.40181 5.02964,8.61076 0.89914,1.27035 1.57497,3.58484 1.60117,5.48347 0.0386,2.79937 -0.44304,3.78291 -3.25649,6.64961 -1.81601,1.85038 -3.30183,3.99982 -3.30183,4.77656 0,2.97155 2.63804,6.2477 8.82064,10.95411 3.52519,2.68346 6.40944,5.38947 6.40944,6.01327 0,0.627 -1.42099,1.5598 -3.17776,2.0862 -4.02007,1.2044 -5.90036,3.2798 -7.54756,8.3305 -0.94128,2.8862 -2.09115,4.5416 -4.1085,5.915 -4.98686,3.39466 -8.41209,7.81796 -8.41209,10.86337 0,3.1636 -1.72554,5.2652 -4.32317,5.2652 -1.89182,0 -4.64945,1.9016 -11.89589,8.2031 -8.76573,7.6226 -13.01513,7.433 -16.63131,-0.7419 -1.57464,-3.5597 -3.86023,-5.0565 -7.72157,-5.0565 -3.35411,0 -6.44711,2.17 -10.38218,7.2839 -3.78859,4.9236 -7.62301,7.9376 -10.10508,7.9433 -0.73771,0 -2.47071,-0.9474 -3.85113,-2.109 z M 476.88547,722.68837 c 2.86277,-2.86276 6.46018,-3.2686 7.10531,-0.80158 0.56272,2.15184 2.60159,2.01935 6.16787,-0.4008 1.62416,-1.10217 3.29769,-2.00395 3.71899,-2.00395 0.42129,0 0.76598,-0.45876 0.76598,-1.01946 0,-1.32271 6.67503,-8.59954 7.88835,-8.59954 1.50022,0 1.10137,-0.69928 -1.90382,-3.33787 -2.72563,-2.39314 -2.77985,-2.54594 -1.43179,-4.03553 1.33773,-1.47817 1.32071,-1.69997 -0.37613,-4.90284 -2.08464,-3.93487 -2.32781,-11.8388 -0.45532,-14.79984 0.63516,-1.0044 0.92755,-2.19396 0.64975,-2.64346 -0.27781,-0.44949 0.47216,-1.79197 1.66659,-2.98329 1.19443,-1.19132 2.43096,-2.863 2.74784,-3.71483 0.44286,-1.19045 1.48129,-1.60138 4.48819,-1.77608 2.87484,-0.16702 4.25201,-0.67803 5.19439,-1.92736 1.04449,-1.38472 1.9839,-1.65695 5.06396,-1.46754 3.65114,0.22452 3.93682,0.0749 8.28118,-4.33928 4.58257,-4.65615 4.93059,-4.85582 8.03094,-4.60772 0.97292,0.0778 3.31755,-0.54264 5.21029,-1.37888 1.89275,-0.83624 4.34314,-1.75204 5.44532,-2.0351 1.10218,-0.28308 3.88188,-2.23782 6.17712,-4.34388 2.29524,-2.10605 5.45485,-4.85963 7.02136,-6.11905 l 2.84819,-2.28987 5.25442,1.04442 c 5.12015,1.01772 5.29623,1.13618 6.89066,4.63617 0.89993,1.97547 2.13918,4.09472 2.7539,4.70944 0.61472,0.61471 1.11767,1.49072 1.11767,1.94667 0,0.45596 0.87901,1.87365 1.95335,3.15043 1.46019,1.73535 1.86052,2.97877 1.5857,4.92521 -0.52568,3.72305 1.1709,5.49754 5.40954,5.65795 3.5093,0.1328 9.48782,-2.06794 9.48782,-3.49255 0,-0.42019 0.36072,-0.76398 0.80159,-0.76398 0.44087,0 0.80158,0.54107 0.80158,1.20238 0,1.32093 0.69098,1.50294 2.16007,0.56898 0.698,-0.44376 0.36232,-1.69757 -1.23791,-4.62381 l -2.1956,-4.01497 1.84998,-1.97171 c 1.01748,-1.08444 1.66374,-2.45702 1.43613,-3.05016 -0.22761,-0.59315 0.30856,-1.99684 1.1915,-3.1193 0.88293,-1.12247 1.60533,-3.06303 1.60533,-4.31234 0,-1.62508 0.32156,-2.1481 1.12996,-1.83789 0.68505,0.26288 1.34364,-0.23968 1.67269,-1.2764 0.2985,-0.9405 1.38884,-2.09551 2.42299,-2.5667 1.03414,-0.47119 2.29395,-1.85546 2.79958,-3.07617 1.38903,-3.35339 4.50984,-3.60458 7.89178,-0.6352 2.4128,2.11846 2.86609,2.25791 3.91856,1.20543 1.05248,-1.05247 1.02093,-1.4766 -0.27268,-3.66652 -1.14435,-1.93723 -1.2517,-2.68751 -0.49307,-3.44614 0.53337,-0.53337 0.96977,-1.6221 0.96977,-2.41941 0,-1.25585 0.22083,-1.31479 1.65198,-0.44087 1.39337,0.85085 1.81504,0.78917 2.69352,-0.394 1.29889,-1.74941 2.54661,-1.79525 3.19053,-0.11723 0.30249,0.78826 0.99511,1.09299 1.79053,0.78775 1.84854,-0.70935 3.35717,0.8367 4.32549,4.43275 0.80797,3.00057 2.50243,4.05814 3.61575,2.25673 0.29106,-0.47093 1.08099,-0.64449 1.75541,-0.38569 0.68135,0.26146 2.4122,-0.43404 3.89526,-1.56523 2.84804,-2.1723 2.88032,-3.05707 0.25029,-6.86074 -0.78068,-1.12907 -1.66288,-3.02281 -1.96041,-4.20831 -0.50547,-2.01394 -2.77194,-3.12093 -2.77194,-1.35388 0,1.78929 -2.36973,0.63641 -3.54842,-1.72632 -1.46187,-2.93039 -1.63953,-5.96101 -0.39455,-6.73045 0.4768,-0.29468 0.64603,-1.41409 0.37627,-2.48891 -0.69787,-2.78054 0.21879,-3.85942 1.94885,-2.29373 1.84222,1.66719 5.02558,0.91367 6.05579,-1.43343 0.7907,-1.80144 4.37947,-2.96063 4.37947,-1.41457 0,0.47153 0.89276,0.85733 1.98393,0.85733 1.57348,0 2.32387,-0.74625 3.62715,-3.60713 0.90378,-1.98391 1.99493,-3.60712 2.42478,-3.60712 0.42986,0 0.78155,-0.54107 0.78155,-1.20237 0,-0.66131 -0.36071,-1.20238 -0.80158,-1.20238 -0.44087,0 -0.80158,-0.55567 -0.80158,-1.23483 0,-0.67916 -0.77001,-2.27633 -1.71113,-3.54927 -1.83949,-2.48803 -1.58942,-4.54146 0.65808,-5.40391 1.70779,-0.65534 4.69143,-3.89599 6.30272,-6.84563 0.66229,-1.21239 1.71166,-2.20435 2.33193,-2.20435 0.62028,0 1.36153,-0.73651 1.64723,-1.63667 0.3715,-1.17045 0.95772,-1.49756 2.05798,-1.14835 1.94798,0.61826 1.93467,0.008 -0.0706,-3.23653 l -1.60915,-2.60366 1.98174,-1.29847 c 1.08995,-0.71417 2.83609,-1.29849 3.8803,-1.29849 1.0442,0 2.1691,-0.27053 2.49975,-0.60118 0.33065,-0.33066 0.96821,-0.60119 1.4168,-0.60119 0.44858,0 0.92791,-1.50579 1.06517,-3.3462 0.18621,-2.49661 -0.13959,-3.6984 -1.28319,-4.73334 -1.81042,-1.6384 -2.0338,-4.345 -0.35861,-4.345 1.38631,0 2.77423,-2.36652 2.24885,-3.83447 -0.4525,-1.26431 1.30274,-3.52614 2.27168,-2.92731 0.8917,0.55111 4.66708,-2.1525 4.70069,-3.36622 0.0139,-0.50038 -0.87659,-1.50066 -1.97877,-2.22283 -1.10218,-0.72217 -2.00396,-2.02615 -2.00396,-2.89773 0,-0.90255 -0.53926,-1.58469 -1.25276,-1.58469 -0.83907,0 -1.16995,-0.59556 -1.00198,-1.80356 0.20622,-1.48303 -0.10535,-1.78011 -1.75317,-1.6716 -10.55355,0.69498 -13.62692,1.67157 -13.62692,4.33011 0,1.96051 -2.02082,2.86632 -3.55467,1.59334 -0.62122,-0.51558 -1.36519,-2.33242 -1.65324,-4.03742 -0.50816,-3.00772 -0.60508,-3.08681 -3.25576,-2.65666 -4.19452,0.68067 -9.24791,-1.83559 -6.76641,-3.36925 1.67383,-1.03448 0.68145,-2.69744 -2.56958,-4.30592 -2.49273,-1.2333 -3.52504,-1.41897 -3.96165,-0.71252 -1.46711,2.37384 -9.48765,0.73908 -13.05653,-2.66119 -0.44542,-0.42438 -1.31508,-0.20422 -2.13914,0.54154 -1.26772,1.14728 -1.53064,1.11459 -3.02081,-0.37559 -1.46247,-1.46246 -2.10648,-1.55506 -6.1915,-0.8902 -6.63728,1.08024 -7.6943,-0.0981 -3.5134,-3.91679 1.3311,-1.21578 2.14791,-2.48279 1.81512,-2.81559 -0.33279,-0.33279 -0.65947,-1.68686 -0.72597,-3.00905 -0.0933,-1.85574 0.31534,-2.56984 1.79199,-3.13126 1.98514,-0.75475 2.61881,-3.4424 1.04147,-4.41725 -0.62751,-0.38782 -0.62751,-0.78248 0,-1.41 0.47929,-0.47928 0.87143,-1.53203 0.87143,-2.33943 0,-0.80741 0.54107,-1.67564 1.20237,-1.9294 0.73526,-0.28215 1.20238,-1.49705 1.20238,-3.12716 0,-3.35737 -1.94003,-4.12599 -6.06447,-2.40269 -2.18346,0.9123 -3.25696,1.01006 -4.03165,0.36712 -0.5807,-0.48193 -1.43233,-0.64355 -1.89252,-0.35914 -0.46018,0.28441 -0.83669,0.13511 -0.83669,-0.33178 0,-0.46689 -0.54107,-0.84889 -1.20237,-0.84889 -0.70888,0 -1.20741,-0.74024 -1.21465,-1.80357 -0.0193,-2.83853 -0.9058,-3.53433 -5.21532,-4.09348 -3.01102,-0.39067 -4.47563,-0.20678 -5.81288,0.72987 -2.02377,1.41751 -3.38803,0.94696 -3.38803,-1.16856 0,-0.7874 -0.71221,-2.07617 -1.5827,-2.86395 -0.87048,-0.78778 -1.82298,-2.18938 -2.11666,-3.11467 -0.29367,-0.92529 -1.23738,-2.63378 -2.09712,-3.79665 -1.31343,-1.77651 -1.40262,-2.37141 -0.55823,-3.72349 0.8045,-1.28821 0.80544,-2.54928 0.005,-6.32241 -1.07961,-5.08733 -1.92773,-6.56077 -4.66393,-8.10266 -1.51637,-0.8545 -1.87944,-0.77758 -2.58913,0.54849 -0.454,0.84829 -0.82545,2.08585 -0.82545,2.75012 0,1.84601 -1.55162,2.40246 -3.61697,1.29711 -1.55019,-0.82963 -1.78761,-1.44774 -1.42185,-3.70167 0.34836,-2.14667 0.16898,-2.70572 -0.86817,-2.70572 -0.89052,0 -1.30883,-0.70274 -1.3122,-2.20436 -0.002,-1.21239 -0.54378,-3.23754 -1.20237,-4.50033 -1.45406,-2.78804 -1.4988,-4.05667 -0.21553,-6.11151 0.77482,-1.24069 0.77482,-1.77938 0,-2.55419 -0.54013,-0.54005 -0.98199,-1.64754 -0.98199,-2.46108 0,-1.2501 -0.42505,-1.39944 -2.74472,-0.96426 -2.49168,0.46744 -2.86546,0.28143 -4.05428,-2.01748 -1.45971,-2.82276 -4.13405,-3.08476 -3.86386,-0.37853 0.1157,1.15876 -0.5618,1.81313 -2.50781,2.42223 -2.50227,0.7832 -2.84741,0.64682 -5.60945,-2.21656 -3.22226,-3.34046 -6.28585,-4.54457 -7.98172,-3.13711 -0.5997,0.49771 -1.67412,0.68092 -2.38758,0.40714 -0.79542,-0.30524 -1.48805,-5.1e-4 -1.79053,0.78775 -0.51877,1.3519 -4.3297,1.82542 -4.3297,0.53798 0,-0.41117 -0.70298,-0.97069 -1.56217,-1.24338 -0.85918,-0.2727 -1.78528,-1.19879 -2.05798,-2.05798 -0.29929,-0.94301 -1.21569,-1.56216 -2.31215,-1.56216 -0.99899,0 -2.86842,-1.06142 -4.15429,-2.3587 -1.59052,-1.60464 -2.86949,-2.22882 -4.0006,-1.95242 -0.96216,0.2351 -2.10454,-0.12618 -2.71149,-0.85753 -0.74013,-0.89179 -1.34016,-1.02202 -2.03853,-0.44243 -0.69526,0.57701 -1.28029,0.47117 -1.96661,-0.35579 -1.20893,-1.45668 -0.44327,-2.85055 1.56582,-2.85055 2.122,0 2.90356,-1.66072 1.32484,-2.81512 -0.72866,-0.5328 -1.32484,-1.15746 -1.32484,-1.38811 0,-0.87149 4.45382,-1.22561 5.8716,-0.46684 1.79424,0.96024 2.80681,0.20252 1.4896,-1.11469 -0.52169,-0.52169 -0.94853,-1.52456 -0.94853,-2.22859 0,-0.70403 -1.06686,-2.16492 -2.37081,-3.24641 -1.30394,-1.0815 -2.38608,-2.42857 -2.40475,-2.99349 -0.0187,-0.56493 -0.57501,-1.23477 -1.23632,-1.48853 -0.6613,-0.25377 -1.20237,-0.957 -1.20237,-1.56274 0,-1.26243 -2.95906,-2.19172 -5.72995,-1.79951 -1.56918,0.22211 -1.88509,0.737 -1.88509,3.07237 0,2.10506 -0.30021,2.72373 -1.20238,2.47788 -0.6613,-0.18021 -2.46486,-0.42523 -4.00791,-0.54449 -1.54305,-0.11925 -3.79301,-0.46389 -4.99992,-0.76586 -1.67356,-0.41871 -2.32088,-0.21938 -2.72736,0.83986 -0.29313,0.76389 -2.07109,2.97151 -3.95103,4.90582 -2.72775,2.80665 -3.95769,3.50808 -6.09005,3.4731 -6.66664,-0.10934 -12.98439,0.51013 -13.24714,1.29892 -0.15827,0.47512 0.62336,1.27899 1.73696,1.78638 2.04487,0.9317 2.75554,3.61693 1.21006,4.57209 -1.39203,0.86033 -0.11219,1.8338 3.13136,2.38179 4.14574,0.70043 6.66876,3.07412 6.01904,5.6628 -0.36587,1.45777 -0.17044,1.96712 0.75477,1.96712 0.68666,0 2.2061,1.25551 3.37653,2.79002 1.86063,2.43942 2.03863,3.1697 1.41645,5.81148 -0.58493,2.48367 -1.20612,3.18253 -3.49003,3.9264 -2.81947,0.91831 -4.34539,3.50376 -2.06789,3.50376 0.83076,0 1.19608,0.71417 1.12764,2.20436 -0.0557,1.21239 0.17779,2.8356 0.51882,3.60712 0.45064,1.0195 0.25895,1.40277 -0.70158,1.40277 -1.71817,0 -4.1093,2.30906 -4.83548,4.66951 -0.31539,1.02519 -0.76829,1.66912 -1.00644,1.43097 -0.23815,-0.23814 -1.05716,-0.0989 -1.82003,0.30933 -0.94663,0.50662 -1.86761,0.3785 -2.90055,-0.4035 -2.15329,-1.63019 -4.1274,-1.46023 -4.71983,0.40636 -0.27986,0.88174 -0.8096,1.60316 -1.17721,1.60316 -0.87575,0 -4.03308,5.36985 -4.03308,6.85928 0,1.52814 -2.3265,1.49159 -2.91646,-0.0459 -0.25377,-0.66131 -0.85652,-1.20238 -1.33945,-1.20238 -1.64742,4e-5 -6.16467,5.10792 -6.16467,6.97074 0,1.01569 -0.36071,1.84671 -0.80158,1.84671 -1.37604,0 -0.88319,1.4487 1.20237,3.53425 1.10218,1.10218 2.00396,2.56143 2.00396,3.24277 0,0.68135 0.54107,1.23881 1.20237,1.23881 0.66131,0 1.20238,0.33641 1.20238,0.74757 0,0.41116 0.72142,0.97653 1.60316,1.25639 2.16104,0.68589 2.02161,1.88454 -0.32292,2.77594 -1.05935,0.40276 -2.17797,1.13985 -2.48583,1.63797 -0.30786,0.49812 -1.09045,0.70202 -1.7391,0.45311 -0.64865,-0.24891 -1.81665,-0.1115 -2.59556,0.30536 -2.39913,1.28398 -6.4835,5.15283 -6.4835,6.14139 0,1.91492 -4.16877,2.09492 -6.61593,0.28565 -2.27956,-1.68535 -2.42232,-1.69386 -6.07547,-0.36197 -2.05757,0.75016 -4.89195,1.41432 -6.29861,1.47591 -1.50871,0.0661 -3.24732,0.8516 -4.23953,1.91553 -1.95713,2.09859 -1.96707,2.1007 -3.97768,0.84506 -2.30397,-1.43886 -7.52617,1.34929 -9.67743,5.16681 -1.09721,1.94706 -2.27351,3.00594 -3.33924,3.00594 -1.33273,0 -1.57085,0.38957 -1.25335,2.05047 0.28029,1.46622 0.0933,1.93586 -0.65635,1.6482 -0.61944,-0.2377 -1.33303,0.45185 -1.74422,1.68544 -0.62882,1.88647 -1.14385,2.11064 -5.34257,2.32546 -3.20371,0.16392 -5.24204,-0.15236 -6.56394,-1.01851 -1.05451,-0.69094 -2.43476,-1.05767 -3.06724,-0.81497 -0.63248,0.24271 -1.58121,-0.0783 -2.10829,-0.71345 -0.52709,-0.6351 -1.44301,-1.15472 -2.03538,-1.15472 -0.59236,0 -2.34898,-0.60655 -3.90359,-1.3479 -2.71727,-1.29577 -2.89655,-1.28434 -4.6363,0.29559 -0.99535,0.90393 -2.87574,1.89665 -4.17863,2.20606 -1.3029,0.3094 -2.85638,1.25852 -3.45219,2.10915 -0.5958,0.85063 -1.57383,1.5466 -2.1734,1.5466 -1.45186,0 -1.89574,1.44852 -1.41238,4.6091 0.31155,2.03705 0.11336,2.60514 -0.90883,2.60514 -1.63839,0 -1.69997,1.88253 -0.10488,3.20634 0.66131,0.54883 1.20237,1.41461 1.20237,1.92396 0,2.05444 3.39838,3.83951 7.25272,3.80966 2.2192,-0.0172 4.21719,0.4125 4.71671,1.01438 0.47663,0.5743 2.84811,1.89956 5.26996,2.94503 2.42184,1.04546 4.40336,2.16152 4.40336,2.48013 0,0.31861 -0.81161,1.44551 -1.80356,2.50421 -4.98887,5.32455 -5.42313,6.80712 -3.29874,11.26202 1.05324,2.20867 1.13648,3.24672 0.42419,5.29001 -1.34401,3.85542 1.72891,7.99414 8.56833,11.5402 5.18383,2.68767 6.69883,4.30249 9.22857,9.83663 0.63037,1.37901 1.52789,2.74323 1.99449,3.03161 0.4666,0.28837 0.65641,1.02455 0.42179,1.63595 -0.23462,0.6114 0.6296,2.13288 1.9205,3.38106 1.29088,1.24818 2.77109,3.07599 3.28934,4.0618 0.79543,1.51306 0.68897,2.00927 -0.68312,3.18408 -2.27397,1.94705 -2.0444,3.03759 1.18104,5.61035 3.14562,2.50908 4.46483,6.6508 2.76917,8.69394 -0.77166,0.92981 -0.7937,1.45265 -0.0909,2.15549 0.51036,0.51036 0.92793,1.56452 0.92793,2.34258 0,1.95665 2.59233,3.15694 5.54348,2.56671 1.47466,-0.29494 2.94412,-0.0988 3.6501,0.48707 0.95261,0.7906 1.73757,0.63722 4.04856,-0.79105 2.74879,-1.69884 2.93123,-1.71349 4.43134,-0.35592 0.86049,0.77873 1.56452,1.81638 1.56452,2.30587 0,0.48949 1.76146,1.51561 3.91435,2.28025 2.52706,0.89753 4.06297,1.95853 4.33366,2.99369 0.24602,0.94073 1.09336,1.60343 2.05021,1.60343 0.897,0 1.82857,0.31982 2.07016,0.71071 0.24158,0.39089 1.64946,0.93775 3.12862,1.21524 1.89252,0.35504 3.8546,1.79758 6.62191,4.86847 6.9909,7.75779 8.27333,9.50636 8.79973,11.99821 0.69994,3.31337 3.56425,10.16454 4.91975,11.7676 0.60572,0.71634 1.0005,1.61812 0.87728,2.00395 -0.12322,0.38584 0.26634,1.87416 0.86569,3.30738 0.78808,1.88456 0.85012,2.89458 0.22414,3.64884 -0.47607,0.57363 -0.65775,1.83772 -0.40373,2.80909 0.25401,0.97136 0.0359,2.27935 -0.4847,2.90664 -1.20069,1.44675 0.701,5.48935 4.05736,8.62515 1.32668,1.23948 2.31105,2.99296 2.31105,4.11668 0,1.07664 0.53885,2.99071 1.19744,4.2535 0.65859,1.26279 1.19966,3.23204 1.20238,4.37609 0.002,1.14407 0.76539,2.76728 1.69484,3.60713 1.43179,1.29377 1.61906,2.1267 1.22608,5.45326 -0.44308,3.75058 -2.48876,6.89512 -4.48564,6.89512 -0.4593,0 -1.5809,0.74581 -2.49244,1.65734 l -1.65735,1.65736 1.81435,4.55491 c 1.91148,4.79875 5.10997,9.76522 6.28898,9.76522 0.38452,0 1.78126,-1.08214 3.10387,-2.40475 z m -169.89523,-324.51449 6.73052,-4.90027 4.09085,2.95373 c 2.24997,1.62455 6.7391,4.88992 9.97584,7.25638 3.23674,2.36647 6.06972,4.11792 6.29552,3.89213 0.22579,-0.2258 -1.27703,-5.47411 -3.33959,-11.66291 -2.06257,-6.18879 -3.53126,-11.60651 -3.26375,-12.03936 0.26752,-0.43285 4.87534,-3.95886 10.23961,-7.83558 l 9.75321,-7.04858 -12.85562,-0.21964 -12.85563,-0.21962 -3.81207,-12.06293 c -2.09664,-6.63461 -4.04877,-11.82772 -4.33807,-11.54026 -0.28931,0.28748 -2.15946,5.63427 -4.15589,11.88177 l -3.62989,11.3591 -12.80256,0.40079 -12.80257,0.40079 6.01187,4.43008 c 3.30653,2.43655 7.88216,5.78665 10.16806,7.44466 l 4.1562,3.01457 -1.12873,3.77751 c -0.62079,2.07763 -2.4009,7.54568 -3.95579,12.15123 -1.55489,4.60555 -2.82708,8.51393 -2.82708,8.68529 0,0.17136 1.71339,-0.93272 3.80752,-2.45352 2.09414,-1.5208 6.83626,-4.97021 10.53804,-7.66536 z m 421.76999,-2.36091 -3.88472,-12.18928 10.35231,-7.41713 10.3523,-7.41714 -12.9278,-0.40079 -12.9278,-0.40079 -3.51489,-10.82138 c -1.93318,-5.95175 -3.5195,-11.27226 -3.52514,-11.82335 -0.0327,-3.1903 -1.73004,0.39133 -5.21429,11.0027 l -3.94175,12.00468 -12.72976,0.21946 -12.72976,0.21947 9.88801,7.15556 c 5.43839,3.93557 10.04183,7.27569 10.22984,7.4225 0.18801,0.14681 -1.34854,5.55031 -3.41457,12.00778 -2.06604,6.45747 -3.58996,11.90733 -3.38649,12.11079 0.28404,0.28404 11.79102,-7.78018 19.36519,-13.57134 0.55031,-0.42076 4.77246,2.14874 11.22217,6.82953 5.68696,4.12725 10.41461,7.44871 10.5059,7.38104 0.0913,-0.0677 -1.58215,-5.60821 -3.71875,-12.31231 z M 375.86982,376.15011 c 2.50151,-1.90338 6.92322,-5.13878 9.826,-7.18977 l 5.27778,-3.72909 9.91856,7.18976 c 5.45522,3.95438 10.1786,7.18978 10.49642,7.18978 0.31781,0 -1.19086,-5.27961 -3.35262,-11.73247 -2.16176,-6.45286 -3.76419,-12.00153 -3.56094,-12.33038 0.20324,-0.32884 4.79315,-3.79651 10.1998,-7.70592 l 9.83028,-7.10801 -12.78042,-0.40079 -12.78042,-0.40079 -3.75316,-11.4569 c -2.06424,-6.30128 -3.95255,-11.65628 -4.19627,-11.89999 -0.2437,-0.24371 -2.18211,4.98903 -4.30758,11.62829 l -3.86447,12.07139 -12.77625,0.2294 -12.77627,0.22939 9.78758,7.11831 c 5.38317,3.91507 9.94673,7.37584 10.14126,7.69059 0.19454,0.31476 -1.25179,5.58826 -3.21405,11.7189 -1.96226,6.13064 -3.57204,11.41714 -3.57728,11.74779 -0.0174,1.09798 0.87476,0.63091 5.46205,-2.85949 z m 246.43475,-1.98067 c 4.07319,-2.99275 8.5232,-6.22461 9.88888,-7.18192 l 2.48309,-1.74056 9.90773,7.18192 c 5.44925,3.95005 10.16775,7.18191 10.48557,7.18191 0.31781,0 -1.20003,-5.30698 -3.373,-11.79331 -2.17297,-6.48631 -3.95085,-11.8696 -3.95085,-11.96286 0,-0.0932 4.59638,-3.53353 10.21418,-7.64508 l 10.21416,-7.47553 -12.7744,-0.40079 -12.77441,-0.40079 -3.75316,-11.4569 c -2.06424,-6.30128 -3.95841,-11.66214 -4.20928,-11.913 -0.25088,-0.25087 -2.18654,4.98639 -4.30147,11.63835 l -3.84535,12.09449 -12.7911,0.21932 -12.79111,0.21932 9.75322,7.04858 c 5.36427,3.87672 9.93604,7.3444 10.15949,7.70595 0.22345,0.36156 -1.20045,5.66643 -3.16421,11.78862 -3.66124,11.41417 -3.8993,12.33363 -3.19341,12.33363 0.2253,0 3.74224,-2.44861 7.81543,-5.44135 z M 461.36895,358.42153 c 5.97046,-4.34464 10.74127,-7.2932 11.2125,-6.9298 9.11542,7.0297 19.65742,14.24382 19.65742,13.452 0,-0.56682 -1.6232,-5.87014 -3.60712,-11.78518 -1.98392,-5.91504 -3.60712,-11.00232 -3.60712,-11.30508 0,-0.30275 4.59908,-3.9249 10.22018,-8.04921 l 10.22019,-7.49875 -12.89252,-0.21961 -12.89252,-0.21961 -3.8382,-12.04026 c -2.11101,-6.62215 -4.01918,-11.85927 -4.2404,-11.63807 -0.2212,0.22121 -2.09137,5.55779 -4.15595,11.85908 l -3.75376,11.45689 -12.57942,0.22075 c -6.91868,0.12141 -12.56506,0.48213 -12.5475,0.80158 0.0176,0.31946 4.54554,3.78793 10.06218,7.70771 5.51664,3.91978 9.87736,7.52691 9.69047,8.01583 -0.18687,0.48893 -1.79787,5.39786 -3.57999,10.90875 -1.78213,5.51088 -3.49047,10.65103 -3.7963,11.42256 -0.30583,0.77152 -0.42294,1.40277 -0.26024,1.40277 0.16271,0 4.97235,-3.40306 10.6881,-7.56235 z m 83.4696,-1.07942 8.91339,-6.46269 10.30859,7.50144 c 5.66971,4.1258 10.39646,7.41357 10.50387,7.30617 0.1074,-0.10741 -1.59179,-5.58543 -3.776,-12.17336 -2.18421,-6.58794 -3.97827,-12.00924 -3.9868,-12.04733 -0.008,-0.0381 4.68034,-3.46485 10.4197,-7.61504 l 10.4352,-7.54579 -12.99866,-0.40079 -12.99866,-0.40079 -3.64881,-11.37616 c -2.00684,-6.25688 -3.85337,-11.57154 -4.10339,-11.81034 -0.25002,-0.23881 -2.19689,4.96196 -4.32638,11.55726 l -3.87179,11.99145 -12.90766,0.21968 -12.90766,0.21969 9.83028,7.10802 c 5.40665,3.90941 10.02092,7.41646 10.25391,7.79345 0.23299,0.377 -1.21475,5.8254 -3.21722,12.10759 -2.00247,6.28218 -3.64085,11.75867 -3.64085,12.16996 0,0.4113 0.63125,0.20162 1.40277,-0.46596 0.77153,-0.66757 5.4138,-4.12198 10.31617,-7.67646 z"
       id="path1956" /><path
       style="fill:#000000;fill-opacity:1;stroke:url(#linearGradient4226);stroke-width:37.7953;stroke-dasharray:none"
       d="m 1774.4608,2711.6214 -10.8586,-21.9472 15.5168,-14.1725 c 11.3242,-10.343 15.5169,-18.89 15.5169,-31.6318 0,-9.6026 -1.9338,-19.6831 -4.2974,-22.4011 -2.3635,-2.7179 -7.5014,-15.4754 -11.4175,-28.35 -3.9161,-12.8746 -12.2896,-29.7562 -18.6079,-37.5147 -9.294,-11.4125 -10.7241,-17.4927 -7.4885,-31.839 4.0426,-17.9243 2.9376,-22.3286 -20.4474,-81.4998 -12.6248,-31.9444 -45.3524,-68.8204 -69.8692,-78.7253 -8.8685,-3.5829 -17.2951,-8.0763 -18.7256,-9.9853 -1.4305,-1.909 -10.2086,-7.3689 -19.5069,-12.1331 -9.2983,-4.7641 -16.906,-10.9069 -16.906,-13.6506 0,-2.9817 -12.3349,-3.6993 -30.6621,-1.7837 -27.0404,2.8263 -31.3099,1.9945 -36.1459,-7.0415 -3.016,-5.6355 -4.2502,-14.963 -2.7427,-20.7277 1.7293,-6.613 -1.9748,-15.9637 -10.0363,-25.3358 -10.1926,-11.8495 -11.6255,-16.6987 -7.0836,-23.9714 4.4353,-7.1021 3.4095,-12.3229 -4.6414,-23.6223 -5.6843,-7.9779 -14.9692,-23.5545 -20.6332,-34.6147 -5.6639,-11.0602 -15.7585,-23.9348 -22.4324,-28.6102 -36.2119,-25.3682 -48.3645,-38.9047 -45.4287,-50.6017 1.6284,-6.488 0.615,-17.9658 -2.2518,-25.5062 -4.3489,-11.4384 -3.0301,-16.5712 7.9604,-30.9804 l 13.1728,-17.2705 -23.2002,-13.5963 c -12.7601,-7.4779 -28.6355,-13.6321 -35.2786,-13.6759 -22.4304,-0.1479 -26.9411,-7.0564 -25.6992,-39.3599 0.5154,-13.4062 4.5141,-18.1747 24.4199,-29.1215 l 23.8036,-13.0902 34.4751,12.5138 c 20.6292,7.488 39.5252,11.2462 47.0496,9.3577 12.251,-3.0748 26.9234,-14.3287 26.9234,-20.6506 0,-1.7303 8.3475,-11.4934 18.5499,-21.6958 13.5067,-13.5068 21.565,-17.7615 29.6399,-15.6499 6.0995,1.5951 14.4645,0.1 18.5888,-3.3233 11.0636,-9.1819 51.3839,-18.2952 59.149,-13.3689 11.8978,7.5482 27.4451,4.7105 34.2961,-6.2597 3.669,-5.8751 17.1067,-15.1552 29.8614,-20.6225 12.7548,-5.4674 23.1905,-10.9467 23.1905,-12.1763 0,-1.2296 -7.0225,-9.7533 -15.6056,-18.9414 -8.583,-9.1882 -15.6055,-20.7771 -15.6055,-25.7531 0,-13.6342 16.7478,-26.353 30.1024,-22.8607 8.0568,2.1069 11.5123,0.697 11.5123,-4.6974 0,-4.2393 4.7297,-13.7207 10.5104,-21.0697 8.7968,-11.1833 13.4613,-12.8829 28.6101,-10.4246 11.4075,1.8512 18.0998,0.8371 18.0998,-2.7426 0,-3.1239 4.9685,-10.3087 11.0411,-15.9661 8.1028,-7.549 10.4082,-14.5983 8.663,-26.4892 -1.7627,-12.01 0.091,-17.5247 7.1653,-21.3105 11.9883,-6.4159 12.4786,-29.2891 0.9021,-42.081 -4.7528,-5.2518 -11.2486,-14.7994 -14.4353,-21.217 -3.1866,-6.4176 -11.0021,-12.4163 -17.3678,-13.3306 -6.8647,-0.9859 -11.5739,-5.3248 -11.5739,-10.6637 0,-4.9509 -2.657,-11.6585 -5.9044,-14.906 -4.4047,-4.4046 2.2963,-6.8322 26.3813,-9.5571 27.6499,-3.1282 33.913,-5.8634 43.6178,-19.0485 10.3608,-14.0762 13.2692,-15.1323 33.9351,-12.3222 19.6074,2.6662 22.9626,1.6988 25.3155,-7.2986 1.4917,-5.7046 6.2634,-10.372 10.6036,-10.372 7.8528,0 28.464,20.358 38.1823,37.7133 4.2888,7.6591 2.917,9.1033 -8.6467,9.1033 -9.9702,0 -12.9365,2.1047 -10.8027,7.6652 1.6178,4.2158 -0.8013,9.7597 -5.3757,12.3196 -11.837,6.6243 -4.2862,15.4629 16.5491,19.3717 9.8112,1.8406 20.5495,6.6129 23.8628,10.6051 3.3132,3.9923 9.2487,7.2586 13.1899,7.2586 3.9412,0 7.1658,2.2585 7.1658,5.0189 0,11.159 20.8738,16.5734 39.8061,10.3252 16.308,-5.3821 20.2421,-4.8061 33.3467,4.8825 17.4489,12.9006 35.1557,14.2595 39.4653,3.0289 2.6476,-6.8996 3.8344,-6.9579 8.94,-0.4389 3.2379,4.1343 10.5687,8.3532 16.2908,9.3754 7.5534,1.3494 10.4999,6.1013 10.7551,17.3448 0.5196,22.8914 7.984,54.5001 12.8703,54.5001 2.3436,0 5.0091,5.243 5.9234,11.651 2.1662,15.1833 17.6448,18.2223 21.3156,4.185 1.8421,-7.0441 5.5435,-9.6213 10.8783,-7.5741 10.0814,3.8686 14.9693,18.6865 14.6156,44.3091 -0.1758,12.7288 4.243,26.4283 12.4024,38.4517 6.9713,10.2729 12.6752,20.8701 12.6752,23.5494 0,2.7495 9.7717,3.5319 22.4342,1.7963 20.3056,-2.7832 23.3168,-1.728 31.7356,11.1206 8.3515,12.7461 11.6378,13.9322 32.1851,11.6162 14.2274,-1.6036 22.8838,-0.5011 22.8838,2.9147 0,7.0901 -10.3452,40.0019 -16.2441,51.6782 -2.5098,4.9679 -4.5633,13.2252 -4.5633,18.3495 0,5.1242 -3.5363,14.3656 -7.8585,20.5364 -9.2471,13.202 -4.7119,17.2333 19.1176,16.9939 24.6281,-0.2474 41.0243,2.5296 58.9658,9.9868 8.5831,3.5675 21.5678,5.2991 28.8552,3.848 16.1558,-3.217 23.9385,1.1539 26.5055,14.8859 1.3851,7.4097 6.793,10.8724 18.7915,12.0325 12.8359,1.241 17.6041,4.6467 20.0282,14.3051 3.8625,15.3893 14.1158,16.2196 28.0629,2.2726 11.7713,-11.7713 39.1569,-13.8833 48.4886,-3.7395 26.8768,29.2155 26.7599,28.8679 11.9749,35.6043 -7.5058,3.4199 -13.6469,9.6807 -13.6469,13.9128 0,4.2321 -3.8076,10.479 -8.4614,13.8819 -6.789,4.9642 -7.3031,8.3514 -2.6009,17.1374 10.4043,19.4407 7.1226,29.9187 -11.0455,35.2674 -12.5612,3.698 -16.8113,7.8788 -16.5374,16.2677 0.219,6.7134 -10.7266,23.4039 -27.0003,41.1709 -27.1186,29.6072 -27.2966,30.0201 -19.4657,45.1634 6.5178,12.6041 6.7822,17.9895 1.5083,30.7218 -5.1535,12.4418 -8.6943,14.8616 -18.24,12.4658 -7.2281,-1.8142 -15.0184,0.2002 -19.986,5.1679 -4.4775,4.4775 -13.3762,7.4056 -19.7749,6.507 -9.3204,-1.309 -12.233,1.4695 -14.6459,13.9716 -3.9399,20.4146 4.13,44.2069 15.0084,44.2485 4.7268,0.016 12.4821,6.8667 17.2338,15.2191 8.096,14.2309 8.0702,15.7012 -0.4099,23.3754 -12.6381,11.4373 -26.8829,10.206 -30.2353,-2.6135 -3.5142,-13.4384 -22.59,-21.1126 -42.5546,-17.1197 -16.6682,3.3337 -22.7846,16.1063 -14.6625,30.6196 4.4577,7.9654 3.7681,8.7588 -4.5816,5.2717 -24.6258,-10.2844 -30.8181,-8.7773 -50.257,12.2324 -10.6663,11.5281 -19.3932,22.2582 -19.3932,23.8445 0,1.5863 -4.9354,13.3839 -10.9676,26.2167 -6.0321,12.8329 -9.5091,27.1332 -7.7265,31.7785 4.6836,12.2052 -15.9779,28.0051 -36.6221,28.0051 -14.6571,0 -17.7922,-2.1933 -20.447,-14.305 -3.0586,-13.9537 -25.9115,-62.0374 -33.5683,-70.6293 -2.1104,-2.3681 -12.8078,-6.329 -23.772,-8.8018 -18.7493,-4.2287 -21.5071,-3.1529 -46.3711,18.0892 -27.4591,23.459 -58.4606,39.234 -77.1038,39.234 -5.9517,0 -18.2544,7.2045 -27.3394,16.0101 -9.085,8.8054 -25.5822,18.3203 -36.6605,21.1441 -11.0783,2.8238 -26.3877,6.7382 -34.0209,8.6987 -7.6331,1.9606 -19.3372,10.525 -26.0092,19.0321 -10.3093,13.145 -12.0198,20.9557 -11.3918,52.0184 1.1929,59.0075 1.498,61.1419 9.6031,67.1873 6.5494,4.8851 4.5298,9.1387 -13.0853,27.5601 -23.5639,24.6424 -38.5153,31.3621 -49.4988,22.2466 -5.9384,-4.9285 -10.2387,-4.4702 -20.3747,2.1712 -18.4295,12.0754 -21.2951,10.9143 -33.3888,-13.5291 z"
       id="path2246"
       transform="scale(0.26458333)" /><path
       style="fill:#000000;fill-opacity:1;stroke:url(#linearGradient4268);stroke-width:196.226;stroke-dasharray:none"
       d="m 1113.1944,1530.253 c 0,-0.9294 5.8365,-18.8498 12.97,-39.8231 14.8199,-43.5722 15.3755,-42.1048 -26.9491,-71.1725 -20.7869,-14.276 -26.2691,-20.2527 -19.2474,-20.9838 5.4,-0.5622 25.5738,-2.4993 44.8305,-4.3047 l 35.0123,-3.2825 10.7241,-36.0096 c 5.8983,-19.8053 12.5537,-36.0096 14.7899,-36.0096 2.2361,0 9.5448,17.4707 16.2415,38.8238 l 12.1757,38.8238 43.4798,1.4905 43.4799,1.4905 -33.7326,24.4376 -33.7325,24.4376 7.8739,27.5808 c 4.3306,15.1695 9.971,34.0181 12.5341,41.8859 2.5632,7.8678 3.5748,14.3051 2.248,14.3051 -1.3267,0 -16.8887,-10.5337 -34.5822,-23.4083 -17.6934,-12.8746 -33.7848,-23.4083 -35.7586,-23.4083 -1.9739,0 -17.8979,10.5337 -35.3867,23.4083 -29.4496,21.6795 -36.9706,26.0978 -36.9706,21.7185 z"
       id="path4228"
       transform="scale(0.26458333)"
       inkscape:label="path4228" /><path
       style="fill:#000000;fill-opacity:1;stroke:url(#linearGradient4270);stroke-width:196.226;stroke-dasharray:none"
       d="m 1404.6998,1426.96 c 0.1111,-0.9102 5.6728,-20.2805 12.3592,-43.0451 l 12.157,-41.3902 -34.467,-26.2338 -34.467,-26.2338 44.6599,-1.4905 44.6599,-1.4905 12.1757,-38.8238 c 6.6967,-21.3531 13.6923,-38.8238 15.5459,-38.8238 1.8536,0 8.8761,17.5562 15.6056,39.0138 l 12.2353,39.0139 h 46.6765 46.6766 l -35.8882,26.8487 c -19.7386,14.7668 -36.4269,27.2047 -37.0854,27.6398 -0.6584,0.4351 4.5063,19.2764 11.477,41.8694 6.9707,22.5931 12.1911,41.5553 11.6008,42.1383 -0.5903,0.583 -16.6221,-10.3013 -35.6262,-24.1872 l -34.5529,-25.2471 -36.9724,26.0484 c -20.3349,14.3267 -36.8815,25.3037 -36.7703,24.3935 z"
       id="path4230"
       transform="scale(0.26458333)" /><path
       style="fill:#000000;fill-opacity:1;stroke:url(#linearGradient4272);stroke-width:196.226;stroke-dasharray:none"
       d="m 1712.7816,1364.1834 c 11.4329,-29.876 20.4319,-66.619 17.9195,-73.1661 -1.6817,-4.3826 -16.6596,-18.0956 -33.2841,-30.4735 l -30.2263,-22.5051 42.504,-2.601 c 23.3773,-1.4305 43.539,-3.7713 44.804,-5.2018 1.265,-1.4305 8.0839,-20.1571 15.1531,-41.6147 l 12.8531,-39.0139 14.2298,42.718 14.2297,42.7179 44.2944,1.4978 44.2944,1.4977 -34.2522,25.1236 c -18.8387,13.8181 -34.2522,26.9114 -34.2522,29.0963 0,2.1849 4.6816,17.58 10.4037,34.2114 15.8938,46.1964 14.1536,47.8048 -23.0212,21.2774 l -33.4249,-23.8515 -34.8879,23.3949 c -37.6288,25.2328 -41.1357,26.8195 -37.3369,16.8926 z"
       id="path4232"
       transform="scale(0.26458333)" /><path
       style="fill:#000000;fill-opacity:1;stroke:url(#linearGradient4274);stroke-width:196.226;stroke-dasharray:none"
       d="m 2023.517,1366.3388 c 0,-2.7285 4.8279,-20.592 10.7287,-39.6966 12.375,-40.0656 12.6716,-39.384 -29.866,-68.6419 l -29.0218,-19.9616 44.5254,-1.4977 44.5254,-1.4978 14.2298,-42.7179 14.2297,-42.718 12.921,39.0139 c 7.1065,21.4576 15.496,40.7336 18.6432,42.8355 3.1473,2.102 24.4344,3.8576 47.3046,3.9014 l 41.5823,0.08 -36.996,26.3985 -36.996,26.3985 12.2164,39.5949 c 6.719,21.7771 11.5343,40.277 10.7006,41.1106 -0.8337,0.8337 -17.0791,-9.3184 -36.1008,-22.5603 l -34.585,-24.0761 -27.5185,20.6185 c -35.2668,26.424 -40.523,29.4614 -40.523,23.4165 z"
       id="path4236"
       transform="scale(0.26458333)" /><path
       style="fill:#000000;fill-opacity:1;stroke:url(#linearGradient4276);stroke-width:196.226;stroke-dasharray:none"
       d="m 2326.4778,1421.7376 c 12.1911,-31.7695 24.2642,-79.4131 20.7499,-81.8846 -2.33,-1.6386 -18.1826,-13.5131 -35.228,-26.3876 l -30.9915,-23.4083 45.1542,-1.4977 45.1542,-1.4977 11.5234,-38.8166 c 6.3379,-21.3491 13.1111,-38.8166 15.0516,-38.8166 1.9406,0 9.0342,17.5562 15.7636,39.0138 l 12.2354,39.0139 h 46.6765 46.6765 l -35.8882,26.8487 c -19.7385,14.7668 -36.4269,27.2047 -37.0853,27.6398 -0.6584,0.4351 4.5062,19.2764 11.4769,41.8694 6.9708,22.5931 12.1911,41.5553 11.6008,42.1383 -0.5903,0.583 -16.6221,-10.3013 -35.6262,-24.1872 l -34.5529,-25.2471 -37.9216,26.7172 c -20.8569,14.6945 -36.5031,23.0205 -34.7693,18.5023 z"
       id="path4238"
       transform="scale(0.26458333)" /><path
       style="fill:#000000;fill-opacity:1;stroke:url(#linearGradient4278);stroke-width:196.226;stroke-dasharray:none"
       d="m 2630.4076,1489.4887 c 10.5463,-34.3412 11.7083,-43.2155 6.0809,-46.4388 -3.8262,-2.1916 -19.6689,-13.518 -35.206,-25.1699 l -28.2491,-21.1851 h 44.0829 44.083 l 14.7485,-45.2875 14.7485,-45.2875 13.084,42.353 13.084,42.3529 34.3613,3.2128 c 18.8988,1.767 38.8415,3.6728 44.3172,4.235 7.1397,0.7331 0.9371,7.3339 -21.9284,23.3364 -17.5363,12.2728 -33.0944,24.2724 -34.5736,26.6658 -1.4792,2.3934 3.1166,21.4224 10.213,42.2866 7.0964,20.8642 12.1379,38.6995 11.2034,39.634 -0.9346,0.9346 -16.7301,-8.7987 -35.1013,-21.6294 -18.3711,-12.8307 -34.6893,-23.3538 -36.2627,-23.3847 -1.5733,-0.031 -17.337,10.4776 -35.0304,23.3522 -17.6934,12.8746 -33.1876,23.4083 -34.4314,23.4083 -1.2439,0 3.6054,-19.1043 10.7762,-42.4541 z"
       id="path4240"
       transform="scale(0.26458333)" /></g></svg>
