<?xml version="1.0" encoding="UTF-8" standalone="no"?>
<!-- Created with Inkscape (http://www.inkscape.org/) -->

<svg
   width="1024mm"
   height="1024mm"
   viewBox="0 0 1024 1024"
   version="1.1"
   id="svg4338"
   xml:space="preserve"
   inkscape:export-filename="vector.svg"
   inkscape:export-xdpi="25.4"
   inkscape:export-ydpi="25.4"
   xmlns:inkscape="http://www.inkscape.org/namespaces/inkscape"
   xmlns:sodipodi="http://sodipodi.sourceforge.net/DTD/sodipodi-0.dtd"
   xmlns="http://www.w3.org/2000/svg"
   xmlns:svg="http://www.w3.org/2000/svg"><sodipodi:namedview
     id="namedview4340"
     pagecolor="#ffffff"
     bordercolor="#000000"
     borderopacity="0.25"
     inkscape:showpageshadow="2"
     inkscape:pageopacity="0.0"
     inkscape:pagecheckerboard="0"
     inkscape:deskcolor="#d1d1d1"
     inkscape:document-units="mm"
     showgrid="false"
     inkscape:zoom="0.15027545"
     inkscape:cx="1790.0462"
     inkscape:cy="2442.1819"
     inkscape:window-width="1920"
     inkscape:window-height="956"
     inkscape:window-x="0"
     inkscape:window-y="25"
     inkscape:window-maximized="1"
     inkscape:current-layer="layer1" /><defs
     id="defs4335" /><g
     inkscape:label="Layer 1"
     inkscape:groupmode="layer"
     id="layer1"><path
       style="fill:#000000;stroke-width:1.76277"
       d="m 498.74406,1018.1049 c -5.7097,-4.8044 -12.11861,-21.40248 -10.1973,-26.40937 2.84433,-7.41216 -3.99522,-31.86274 -36.91803,-131.97765 -21.89413,-66.57779 -21.98313,-66.79903 -30.71166,-76.34945 -8.66367,-9.47942 -8.75033,-9.69057 -8.4069,-20.48558 0.42812,-13.45769 -6.82615,-41.32037 -19.84255,-76.21254 -5.04648,-13.52776 -18.61551,-53.89491 -30.15339,-89.70478 -18.47159,-57.32983 -20.76167,-65.76425 -19.1675,-70.59464 1.07552,-3.25887 7.81319,-10.97954 16.59753,-19.01907 43.34236,-39.66738 69.8119,-82.99555 100.93067,-165.214 20.55883,-54.3182 23.50175,-65.11644 34.11102,-125.16166 17.95255,-101.6059 16.30563,-96.3118 29.35254,-94.3553 6.51497,0.97698 7.76756,0.60063 10.16164,-3.05322 1.76855,-2.69915 2.66007,-7.85591 2.53024,-14.63561 -0.1278,-6.671664 1.47587,-16.133377 4.42181,-26.089445 2.54224,-8.591763 4.62227,-17.054263 4.62227,-18.805552 0,-8.195221 1.44203,-8.936885 14.98934,-7.70926 8.04642,0.729147 16.13847,0.36151 21.76784,-0.988959 8.67869,-2.081988 9.27221,-1.971092 18.8844,3.528439 9.1207,5.218338 10.46166,5.516919 16.56479,3.688376 14.61408,-4.378488 20.76574,-13.207042 23.2727,-33.399792 2.6837,-21.6165888 7.86667,-27.8564533 17.97733,-21.6432154 3.04165,1.8691551 8.47666,3.9446666 12.07781,4.6122504 8.77094,1.625955 10.54562,4.065568 8.39993,11.547166 -0.9497,3.311452 -1.72675,9.358302 -1.72675,13.437445 0,4.079142 -0.7268,11.223579 -1.6151,15.876524 -3.13936,16.443917 -6.3046,45.568554 -5.70736,52.515923 0.33276,3.87087 1.41963,8.56006 2.41526,10.42041 3.52516,6.58682 6.62438,26.37925 5.55516,35.47667 -0.63763,5.42521 -0.27549,10.57088 0.89832,12.76415 2.81954,5.26837 1.00011,8.32954 -7.12971,11.99558 -3.92619,1.77047 -8.15863,4.84454 -9.40541,6.83126 -1.41709,2.25809 -3.08987,16.77285 -4.46218,38.71861 -1.76922,28.293 -1.7591,38.40188 0.0522,52.08668 2.38393,18.0116 2.62895,15.80821 -6.07907,54.66471 -2.06025,9.19312 -2.25603,17.25087 -1.00654,41.42498 1.19887,23.19492 0.9835,34.21603 -0.94821,48.52089 -1.3747,10.17997 -5.66641,51.62076 -9.53716,92.09066 -6.12018,63.98844 -7.88506,77.08817 -13.53709,100.47761 -6.00925,24.86774 -7.01141,27.43566 -13.28934,34.05231 -5.46741,5.76241 -7.11384,9.14614 -8.45262,17.37196 -0.91445,5.6186 -2.49655,11.22044 -3.51577,12.44853 -1.01921,1.22808 -3.72567,7.68909 -6.01432,14.35781 -2.28867,6.66871 -8.16067,22.04048 -13.04889,34.1595 -12.99103,32.20776 -14.90325,39.957 -13.8214,56.01133 0.50471,7.48985 1.00486,15.10898 1.11146,16.93143 0.10664,1.82245 -1.2326,6.1853 -2.97594,9.69521 -3.50623,7.05917 -4.16349,23.98416 -1.59401,41.04703 1.47025,9.76337 1.29915,10.39857 -7.65365,28.41369 -6.49718,13.07385 -9.67624,21.95089 -10.94309,30.55695 -0.98207,6.67145 -3.32101,18.07924 -5.19767,25.35065 -1.87666,7.2714 -6.1686,23.92954 -9.53767,37.01807 -7.78502,30.24411 -13.41068,43.59209 -21.84262,51.82559 l -6.71252,6.5547 -5.5428,-4.664 z"
       id="path4366" /></g></svg>
